<?xml version="1.0" encoding="UTF-8"?>
<svg xmlns="http://www.w3.org/2000/svg" width="1254" height="1254" viewBox="0 0 1254 1254" fill="none" shape-rendering="geometricPrecision">
  <title>People Pair</title>
  <defs>
    <linearGradient id="paint0" x1="0.83292" y1="1.05827" x2="0.16708" y2="-0.05827">
      <stop offset="0" stop-color="#102D24"/>
      <stop offset="0.5" stop-color="#112E24"/>
      <stop offset="1" stop-color="#122F25"/>
    </linearGradient>
    <linearGradient id="paint1" x1="0.24014" y1="1.09580" x2="0.75986" y2="-0.09580">
      <stop offset="0" stop-color="#B89759"/>
      <stop offset="0.5" stop-color="#BE9953"/>
      <stop offset="1" stop-color="#C19A50"/>
    </linearGradient>
  </defs>
  <path d="M707,771L709,773L709,774L711,776L711,777L713,779L713,780L715,782L715,783L719,788L719,789L720,790L721,793L723,795L723,796L724,797L724,798L725,799L725,800L726,801L727,804L729,806L729,807L730,808L730,809L731,810L731,811L732,812L732,813L735,818L735,820L738,825L738,827L740,830L740,832L742,835L742,837L744,840L744,842L745,843L745,845L746,846L746,849L747,850L747,852L748,853L748,856L749,857L749,859L750,860L750,863L751,864L751,868L752,869L752,872L753,873L753,877L754,878L754,884L755,885L755,891L756,892L756,902L757,903L757,920L758,921L758,956L757,957L757,961L758,962L758,971L757,972L757,984L756,985L756,995L755,996L755,1001L754,1002L754,1003L1057,1003L1058,1002L1061,1002L1062,1001L1064,1001L1065,1000L1068,999L1073,995L1074,995L1078,991L1078,990L1081,987L1081,986L1083,984L1083,983L1084,982L1084,980L1086,977L1086,974L1087,973L1087,920L1086,919L1086,910L1085,909L1085,903L1084,902L1084,898L1083,897L1083,893L1082,892L1082,888L1081,887L1081,884L1080,883L1080,880L1079,879L1079,876L1078,875L1078,873L1077,872L1077,869L1076,868L1076,866L1075,865L1075,863L1074,862L1074,860L1073,859L1073,857L1072,856L1072,854L1069,849L1069,847L1068,846L1068,845L1065,840L1065,838L1063,836L1063,835L1062,834L1062,832L1061,831L1061,830L1060,829L1059,826L1057,824L1057,823L1056,822L1055,819L1053,817L1052,814L1050,812L1049,809L1047,807L1047,806L1045,804L1045,803L1042,800L1042,799L1040,797L1040,796L1036,792L1036,791L1029,784L1029,783L1017,771L1016,771L1008,763L1007,763L1004,760L1003,760L1000,757L999,757L997,755L994,754L992,752L989,751L987,749L986,749L985,748L982,747L980,745L979,745L978,744L977,744L976,743L975,743L970,740L968,740L965,738L963,738L962,737L960,737L957,735L955,735L954,734L952,734L951,733L948,733L947,732L944,732L943,731L940,731L939,730L936,730L935,729L930,729L929,728L923,728L922,727L797,727L796,728L789,728L788,729L783,729L782,730L779,730L778,731L775,731L774,732L771,732L770,733L768,733L767,734L765,734L764,735L762,735L759,737L757,737L752,740L750,740L749,741L748,741L747,742L746,742L745,743L742,744L740,746L737,747L735,749L734,749L732,751L731,751L729,753L728,753L726,755L725,755L723,757L722,757L718,761L717,761ZM197,894L197,899L196,900L196,905L195,906L195,912L194,913L194,924L193,925L193,970L194,971L194,975L195,976L195,979L196,980L196,981L197,982L197,983L198,984L199,987L201,989L201,990L207,996L208,996L211,999L212,999L213,1000L214,1000L219,1003L222,1003L223,1004L229,1004L230,1005L235,1005L236,1004L246,1004L247,1005L277,1005L278,1004L279,1005L286,1005L287,1004L288,1005L289,1004L292,1004L293,1005L329,1005L330,1004L336,1004L337,1005L351,1005L352,1004L358,1004L359,1005L368,1005L369,1004L379,1004L380,1005L384,1005L385,1004L392,1004L393,1005L540,1005L541,1004L559,1004L560,1005L630,1005L631,1004L647,1004L648,1005L701,1005L702,1004L707,1004L708,1003L710,1003L711,1002L713,1002L714,1001L715,1001L717,999L720,998L725,993L726,993L726,992L730,988L730,987L732,985L732,984L735,979L735,977L736,976L736,972L737,971L737,923L736,922L736,909L735,908L735,902L734,901L734,896L733,895L733,891L732,890L732,886L731,885L731,881L730,880L730,877L729,876L729,873L728,872L728,869L727,868L727,866L726,865L726,863L725,862L725,859L724,858L724,856L723,855L723,853L722,852L722,850L720,847L720,845L719,844L719,842L716,837L716,835L715,834L715,833L712,828L712,826L711,825L711,824L710,823L710,822L709,821L708,818L706,816L706,815L705,814L705,813L704,812L704,811L703,810L702,807L700,805L699,802L697,800L697,799L695,797L695,796L691,791L690,788L688,786L688,785L686,783L686,782L682,778L682,777L677,772L677,771L672,766L672,765L651,744L650,744L644,738L643,738L639,734L638,734L635,731L634,731L632,729L631,729L628,726L627,726L622,722L621,722L620,721L619,721L618,720L615,719L613,717L610,716L608,714L607,714L604,712L602,712L601,711L600,711L599,710L598,710L597,709L596,709L591,706L589,706L588,705L586,705L585,704L583,704L582,703L580,703L579,702L578,702L577,701L575,701L574,700L571,700L570,699L567,699L566,698L564,698L563,697L560,697L559,696L555,696L554,695L549,695L548,694L539,694L538,693L393,693L392,694L385,694L384,695L379,695L378,696L374,696L373,697L370,697L369,698L366,698L365,699L362,699L361,700L359,700L358,701L356,701L355,702L353,702L352,703L350,703L349,704L347,704L344,706L342,706L341,707L339,707L334,710L332,710L330,712L328,712L327,713L326,713L325,714L322,715L320,717L319,717L318,718L317,718L315,720L314,720L313,721L312,721L311,722L308,723L306,725L305,725L303,727L302,727L300,729L299,729L295,733L294,733L292,735L291,735L286,740L285,740L279,746L278,746L259,765L259,766L253,772L253,773L249,777L249,778L246,781L246,782L244,784L244,785L241,788L241,789L237,794L236,797L234,799L234,800L230,805L229,808L227,810L227,811L226,812L226,813L225,814L225,815L224,816L224,817L223,818L223,819L222,820L222,821L221,822L221,823L220,824L220,825L217,830L217,832L216,833L216,834L213,839L213,841L212,842L212,843L211,844L211,846L209,849L209,851L208,852L208,854L207,855L207,857L206,858L206,861L205,862L205,864L204,865L204,867L203,868L203,871L202,872L202,875L201,876L201,879L200,880L200,883L199,884L199,888L198,889L198,893ZM722,557L722,579L723,580L723,587L724,588L724,593L725,594L725,597L726,598L726,601L727,602L727,605L729,608L729,610L731,613L731,615L734,620L734,622L735,623L735,624L736,625L737,628L739,630L739,631L740,632L740,633L741,634L742,637L744,639L744,640L747,643L747,644L750,647L750,648L753,651L753,652L772,671L773,671L776,674L777,674L779,676L780,676L782,678L783,678L785,680L786,680L791,684L792,684L793,685L794,685L795,686L796,686L797,687L798,687L803,690L805,690L806,691L808,691L813,694L815,694L816,695L818,695L819,696L821,696L822,697L825,697L826,698L829,698L830,699L834,699L835,700L840,700L841,701L849,701L850,702L874,702L875,701L884,701L885,700L890,700L891,699L894,699L895,698L898,698L899,697L902,697L903,696L905,696L906,695L908,695L909,694L911,694L912,693L914,693L919,690L921,690L922,689L924,689L925,688L926,688L927,687L930,686L935,682L938,681L940,679L941,679L943,677L944,677L947,674L948,674L952,670L953,670L958,665L959,665L963,661L963,660L971,652L971,651L975,647L975,646L978,643L978,642L980,640L981,637L983,635L984,632L986,630L986,629L987,628L987,627L988,626L988,625L989,624L989,623L990,622L990,621L993,616L993,614L995,611L995,609L996,608L996,606L997,605L997,602L998,601L998,599L999,598L999,595L1000,594L1000,590L1001,589L1001,585L1002,584L1002,576L1003,575L1003,557L1002,556L1001,556L999,554L998,554L994,550L993,550L990,547L989,547L987,545L986,545L984,543L983,543L978,539L977,539L976,538L975,538L973,536L970,535L968,533L967,533L966,532L965,532L964,531L963,531L962,530L961,530L960,529L959,529L954,526L952,526L949,524L947,524L944,522L942,522L939,520L937,520L936,519L934,519L933,518L931,518L930,517L928,517L927,516L924,516L923,515L921,515L920,514L917,514L916,513L913,513L912,512L909,512L908,511L904,511L903,510L897,510L896,509L890,509L889,508L881,508L880,507L846,507L845,508L836,508L835,509L829,509L828,510L824,510L823,511L819,511L818,512L814,512L813,513L810,513L809,514L806,514L805,515L802,515L801,516L799,516L798,517L796,517L795,518L793,518L792,519L790,519L787,521L785,521L784,522L782,522L781,523L780,523L779,524L777,524L774,526L772,526L771,527L770,527L769,528L768,528L767,529L766,529L765,530L764,530L763,531L762,531L761,532L760,532L759,533L756,534L754,536L751,537L749,539L746,540L744,542L743,542L741,544L740,544L738,546L737,546L735,548L734,548L731,551L730,551L726,555L725,555ZM290,495L292,497L291,498L292,499L292,514L293,515L293,521L294,522L294,526L295,527L295,532L296,533L296,536L297,537L297,539L298,540L298,543L299,544L299,546L301,549L301,551L302,552L302,554L303,555L303,557L306,562L306,564L307,565L307,566L308,567L308,568L309,569L309,570L310,571L310,572L311,573L311,574L312,575L313,578L315,580L316,583L320,588L321,591L324,594L324,595L328,599L328,600L332,604L332,605L345,618L345,619L346,619L354,627L355,627L359,631L360,631L363,634L364,634L366,636L367,636L370,639L371,639L373,641L374,641L375,642L378,643L380,645L381,645L382,646L383,646L384,647L385,647L386,648L387,648L388,649L389,649L390,650L391,650L392,651L393,651L398,654L400,654L403,656L405,656L406,657L408,657L409,658L411,658L412,659L415,659L416,660L419,660L420,661L422,661L423,662L426,662L427,663L430,663L431,664L437,664L438,665L443,665L444,666L454,666L455,667L480,667L481,666L491,666L492,665L497,665L498,664L502,664L503,663L507,663L508,662L511,662L512,661L515,661L516,660L518,660L519,659L521,659L522,658L524,658L525,657L527,657L528,656L530,656L531,655L533,655L538,652L540,652L541,651L542,651L543,650L544,650L545,649L546,649L547,648L550,647L552,645L555,644L557,642L558,642L559,641L562,640L565,637L566,637L568,635L569,635L571,633L572,633L575,630L576,630L582,624L583,624L602,605L602,604L606,600L606,599L609,596L609,595L611,593L611,592L613,590L613,589L617,584L617,583L618,582L619,579L621,577L621,576L622,575L622,574L623,573L623,572L624,571L624,570L625,569L625,568L628,563L628,561L629,560L629,559L630,558L630,556L632,553L632,551L633,550L633,548L634,547L634,545L635,544L635,542L636,541L636,539L637,538L637,535L638,534L638,532L639,531L639,528L640,527L640,521L641,520L641,513L642,512L642,496L643,495L641,495L637,491L636,491L634,489L634,488L633,488L632,487L632,486L631,486L624,479L623,479L619,475L618,475L611,469L610,469L608,467L607,467L602,463L599,462L597,460L596,460L595,459L594,459L593,458L590,457L588,455L587,455L586,454L585,454L580,451L578,451L573,448L571,448L570,447L569,447L568,446L566,446L563,444L561,444L560,443L558,443L557,442L555,442L554,441L552,441L551,440L549,440L548,439L546,439L545,438L542,438L541,437L539,437L538,436L534,436L533,435L530,435L529,434L526,434L525,433L521,433L520,432L516,432L515,431L510,431L509,430L504,430L503,429L495,429L494,428L483,428L482,427L455,427L454,428L442,428L441,429L433,429L432,430L426,430L425,431L421,431L420,432L415,432L414,433L410,433L409,434L406,434L405,435L402,435L401,436L398,436L397,437L395,437L394,438L391,438L390,439L387,439L384,441L381,441L380,442L378,442L375,444L373,444L372,445L370,445L367,447L365,447L362,449L360,449L359,450L358,450L357,451L356,451L355,452L354,452L353,453L352,453L351,454L350,454L349,455L348,455L347,456L346,456L345,457L344,457L343,458L340,459L338,461L337,461L336,462L335,462L333,464L330,465L328,467L327,467L325,469L324,469L321,472L320,472L317,475L316,475L313,478L312,478L305,485L304,485L295,494L294,494L291,496ZM987,504L986,503L986,498L985,497L985,494L984,493L984,489L983,488L983,485L981,482L981,480L980,479L980,477L978,474L978,472L977,471L977,469L976,468L976,467L974,465L974,464L973,463L973,462L972,461L971,458L969,456L968,453L966,451L966,450L963,447L963,446L959,442L959,441L946,428L945,428L941,424L940,424L937,421L936,421L931,417L930,417L929,416L928,416L927,415L926,415L925,414L924,414L923,413L922,413L921,412L920,412L915,409L913,409L910,407L908,407L907,406L905,406L904,405L901,405L900,404L897,404L896,403L893,403L892,402L888,402L887,401L881,401L880,400L866,400L865,399L863,399L862,400L849,400L848,401L842,401L841,402L837,402L836,403L832,403L831,404L828,404L827,405L825,405L824,406L822,406L821,407L819,407L816,409L814,409L811,411L809,411L808,412L807,412L806,413L805,413L804,414L803,414L802,415L799,416L797,418L794,419L792,421L791,421L789,423L788,423L785,426L784,426L780,430L779,430L767,442L767,443L763,447L763,448L760,451L760,452L756,457L755,460L753,462L753,463L752,464L752,465L751,466L751,467L750,468L750,469L747,474L747,476L745,479L745,481L744,482L744,484L743,485L743,487L742,488L742,491L741,492L741,495L740,496L740,500L739,501L739,507L738,508L738,511L739,511L741,509L744,508L746,506L749,505L751,503L752,503L753,502L754,502L755,501L756,501L757,500L758,500L759,499L760,499L761,498L762,498L763,497L764,497L765,496L766,496L767,495L768,495L773,492L775,492L780,489L782,489L783,488L785,488L786,487L788,487L789,486L791,486L792,485L794,485L795,484L797,484L798,483L800,483L801,482L804,482L805,481L807,481L808,480L812,480L813,479L816,479L817,478L822,478L823,477L827,477L828,476L835,476L836,475L845,475L846,474L880,474L881,475L890,475L891,476L897,476L898,477L904,477L905,478L909,478L910,479L914,479L915,480L918,480L919,481L922,481L923,482L925,482L926,483L928,483L929,484L932,484L933,485L935,485L936,486L938,486L941,488L943,488L944,489L946,489L949,491L951,491L952,492L953,492L954,493L955,493L960,496L962,496L963,497L964,497L965,498L968,499L970,501L971,501L972,502L975,503L977,505L980,506L982,508L983,508L985,510L986,510L987,511ZM309,428L309,440L311,438L312,438L315,435L316,435L318,433L321,432L323,430L324,430L326,428L329,427L331,425L332,425L333,424L334,424L335,423L336,423L337,422L338,422L339,421L340,421L341,420L342,420L343,419L344,419L345,418L346,418L347,417L348,417L349,416L350,416L355,413L357,413L362,410L364,410L367,408L369,408L370,407L372,407L375,405L377,405L378,404L380,404L381,403L383,403L384,402L387,402L388,401L390,401L391,400L393,400L394,399L396,399L397,398L400,398L401,397L405,397L406,396L409,396L410,395L413,395L414,394L418,394L419,393L423,393L424,392L429,392L430,391L435,391L436,390L443,390L444,389L455,389L456,388L484,388L485,389L496,389L497,390L504,390L505,391L511,391L512,392L516,392L517,393L521,393L522,394L526,394L527,395L530,395L531,396L535,396L536,397L538,397L539,398L542,398L543,399L545,399L546,400L548,400L549,401L551,401L552,402L554,402L555,403L557,403L558,404L560,404L561,405L563,405L564,406L566,406L567,407L568,407L573,410L575,410L578,412L580,412L581,413L582,413L583,414L584,414L585,415L586,415L587,416L588,416L589,417L590,417L591,418L594,419L596,421L597,421L598,422L601,423L603,425L604,425L605,426L608,427L610,429L611,429L613,431L614,431L617,434L618,434L620,436L621,436L626,440L626,432L625,431L625,423L624,422L624,417L623,416L623,413L622,412L622,408L621,407L621,404L620,403L620,401L619,400L619,397L618,396L618,394L616,391L616,389L615,388L615,386L614,385L614,384L613,383L613,382L612,381L612,380L611,379L611,378L610,377L610,376L609,375L609,374L608,373L608,372L607,371L607,370L606,369L605,366L603,364L603,363L601,361L601,360L599,358L599,357L597,355L597,354L592,349L592,348L586,342L586,341L580,335L579,335L572,328L571,328L564,322L563,322L561,320L560,320L555,316L554,316L553,315L550,314L548,312L546,312L544,310L543,310L542,309L540,309L539,308L538,308L533,305L531,305L530,304L528,304L525,302L523,302L522,301L520,301L519,300L516,300L515,299L512,299L511,298L508,298L507,297L504,297L503,296L498,296L497,295L491,295L490,294L482,294L481,293L456,293L455,294L446,294L445,295L440,295L439,296L434,296L433,297L429,297L428,298L425,298L424,299L421,299L420,300L418,300L417,301L415,301L414,302L412,302L411,303L409,303L408,304L406,304L405,305L404,305L403,306L401,306L398,308L396,308L395,309L392,310L390,312L389,312L388,313L387,313L386,314L385,314L384,315L381,316L379,318L378,318L376,320L375,320L373,322L372,322L370,324L369,324L366,327L365,327L360,332L359,332L345,346L345,347L341,351L341,352L338,355L338,356L336,358L336,359L332,364L331,367L329,369L329,370L328,371L327,374L325,376L325,378L324,379L324,380L321,385L321,387L319,390L319,392L317,395L317,397L316,398L316,400L315,401L315,404L314,405L314,407L313,408L313,411L312,412L312,416L311,417L311,420L310,421L310,427Z" fill="url(#paint0)" fill-rule="evenodd" clip-rule="evenodd"/>
  <path d="M712,486L712,490L711,491L711,496L710,497L710,502L709,503L709,536L710,537L710,544L711,545L711,547L712,548L712,550L714,552L714,553L715,553L717,555L719,555L720,556L722,556L723,555L726,554L730,550L731,550L734,547L735,547L737,545L738,545L740,543L741,543L746,539L747,539L748,538L749,538L751,536L754,535L756,533L757,533L758,532L759,532L760,531L761,531L762,530L763,530L764,529L765,529L766,528L767,528L772,525L774,525L775,524L776,524L777,523L779,523L782,521L784,521L785,520L787,520L790,518L792,518L793,517L795,517L796,516L798,516L799,515L801,515L802,514L805,514L806,513L809,513L810,512L813,512L814,511L818,511L819,510L823,510L824,509L828,509L829,508L835,508L836,507L845,507L846,506L880,506L881,507L889,507L890,508L896,508L897,509L903,509L904,510L908,510L909,511L912,511L913,512L916,512L917,513L920,513L921,514L923,514L924,515L927,515L928,516L930,516L931,517L933,517L934,518L936,518L937,519L939,519L942,521L944,521L945,522L946,522L947,523L949,523L952,525L954,525L955,526L956,526L957,527L958,527L959,528L960,528L961,529L962,529L963,530L964,530L965,531L968,532L970,534L973,535L975,537L978,538L980,540L981,540L983,542L984,542L986,544L987,544L989,546L990,546L993,549L994,549L998,553L999,553L1001,555L1002,555L1003,556L1006,556L1007,555L1010,554L1012,552L1012,551L1014,548L1014,545L1015,544L1015,537L1016,536L1016,521L1017,520L1017,516L1016,515L1016,501L1015,500L1015,495L1014,494L1014,490L1013,489L1013,485L1012,484L1012,480L1011,479L1011,477L1010,476L1010,474L1009,473L1009,471L1008,470L1008,468L1007,467L1007,465L1006,464L1006,463L1005,462L1005,460L1002,455L1002,453L1000,451L1000,450L999,449L999,448L998,447L998,446L997,445L996,442L994,440L993,437L990,434L990,433L988,431L988,430L985,427L985,426L981,422L981,421L964,404L963,404L959,400L958,400L955,397L954,397L952,395L951,395L946,391L943,390L941,388L940,388L939,387L938,387L937,386L936,386L935,385L934,385L933,384L932,384L931,383L930,383L929,382L928,382L923,379L921,379L920,378L918,378L915,376L913,376L912,375L910,375L909,374L907,374L906,373L903,373L902,372L899,372L898,371L894,371L893,370L888,370L887,369L880,369L879,368L849,368L848,369L841,369L840,370L834,370L833,371L829,371L828,372L825,372L824,373L821,373L820,374L818,374L817,375L815,375L814,376L812,376L811,377L809,377L808,378L807,378L806,379L804,379L799,382L797,382L796,383L795,383L794,384L793,384L792,385L789,386L787,388L784,389L782,391L779,392L777,394L776,394L774,396L773,396L770,399L769,399L766,402L765,402L762,405L761,405L744,422L744,423L740,427L740,428L738,430L738,431L735,434L735,435L731,440L730,443L728,445L727,448L725,450L725,451L724,452L724,454L721,459L721,461L720,462L720,463L719,464L719,466L717,469L717,471L716,472L716,474L715,475L715,478L714,479L714,481L713,482L713,485ZM737,508L738,507L738,501L739,500L739,496L740,495L740,492L741,491L741,488L742,487L742,485L743,484L743,482L744,481L744,479L746,476L746,474L747,473L747,472L748,471L748,470L749,469L749,468L750,467L750,466L751,465L752,462L754,460L755,457L757,455L757,454L759,452L759,451L762,448L762,447L766,443L766,442L779,429L780,429L784,425L785,425L788,422L789,422L794,418L797,417L799,415L800,415L801,414L802,414L803,413L804,413L809,410L811,410L814,408L816,408L819,406L821,406L822,405L824,405L825,404L827,404L828,403L831,403L832,402L836,402L837,401L841,401L842,400L848,400L849,399L862,399L863,398L865,398L866,399L880,399L881,400L887,400L888,401L892,401L893,402L896,402L897,403L900,403L901,404L904,404L905,405L907,405L908,406L910,406L913,408L915,408L916,409L917,409L918,410L919,410L920,411L921,411L922,412L923,412L924,413L925,413L926,414L927,414L928,415L931,416L933,418L934,418L936,420L937,420L940,423L941,423L945,427L946,427L960,441L960,442L964,446L964,447L967,450L967,451L969,453L970,456L972,458L972,459L973,460L973,461L974,462L975,465L977,467L977,468L978,469L978,471L979,472L979,474L981,477L981,479L982,480L982,482L984,485L984,488L985,489L985,493L986,494L986,497L987,498L987,503L988,504L988,511L987,512L986,511L985,511L983,509L982,509L980,507L977,506L975,504L974,504L973,503L970,502L968,500L967,500L962,497L960,497L959,496L958,496L957,495L956,495L951,492L949,492L946,490L944,490L943,489L941,489L938,487L936,487L935,486L933,486L932,485L929,485L928,484L926,484L925,483L923,483L922,482L919,482L918,481L915,481L914,480L910,480L909,479L905,479L904,478L898,478L897,477L891,477L890,476L881,476L880,475L846,475L845,476L836,476L835,477L828,477L827,478L823,478L822,479L817,479L816,480L813,480L812,481L808,481L807,482L805,482L804,483L801,483L800,484L798,484L797,485L795,485L794,486L792,486L791,487L789,487L788,488L786,488L785,489L783,489L782,490L780,490L775,493L773,493L772,494L771,494L770,495L769,495L768,496L767,496L766,497L765,497L764,498L763,498L762,499L761,499L760,500L759,500L758,501L757,501L756,502L755,502L754,503L751,504L749,506L746,507L744,509L741,510L739,512L738,512L737,511ZM281,410L281,415L280,416L280,421L279,422L279,430L278,431L278,463L279,464L279,472L280,473L280,478L281,479L281,483L282,484L282,487L283,488L284,491L286,493L287,493L288,494L290,494L291,495L292,494L295,493L304,484L305,484L312,477L313,477L316,474L317,474L324,468L325,468L330,464L333,463L335,461L338,460L340,458L341,458L342,457L343,457L344,456L345,456L346,455L347,455L348,454L349,454L350,453L351,453L352,452L353,452L354,451L355,451L360,448L362,448L363,447L364,447L365,446L367,446L370,444L372,444L373,443L375,443L378,441L380,441L381,440L384,440L387,438L390,438L391,437L394,437L395,436L397,436L398,435L401,435L402,434L405,434L406,433L409,433L410,432L414,432L415,431L420,431L421,430L425,430L426,429L432,429L433,428L441,428L442,427L454,427L455,426L482,426L483,427L494,427L495,428L503,428L504,429L509,429L510,430L515,430L516,431L520,431L521,432L525,432L526,433L529,433L530,434L533,434L534,435L538,435L539,436L541,436L542,437L545,437L546,438L548,438L549,439L551,439L552,440L554,440L555,441L557,441L558,442L560,442L561,443L563,443L566,445L568,445L571,447L573,447L578,450L580,450L581,451L582,451L583,452L584,452L585,453L588,454L590,456L591,456L592,457L593,457L594,458L597,459L599,461L602,462L604,464L605,464L607,466L608,466L610,468L611,468L618,474L619,474L623,478L624,478L631,485L632,485L633,486L633,487L634,487L636,490L637,490L641,494L643,494L644,495L645,494L647,494L649,492L650,492L650,491L652,489L652,488L653,487L653,484L654,483L654,480L655,479L655,474L656,473L656,466L657,465L657,453L658,452L658,436L657,435L657,424L656,423L656,416L655,415L655,411L654,410L654,407L653,406L653,403L652,402L652,399L651,398L651,395L650,394L650,391L649,390L649,388L648,387L648,385L646,382L646,380L645,379L645,377L643,374L643,372L641,369L641,367L640,366L640,365L639,364L638,361L636,359L636,358L635,357L634,354L632,352L631,349L629,347L628,344L626,342L625,339L622,336L622,335L619,332L619,331L615,327L615,326L607,318L607,317L601,311L600,311L592,303L591,303L587,299L586,299L583,296L582,296L580,294L579,294L576,291L575,291L573,289L570,288L568,286L565,285L563,283L562,283L561,282L560,282L559,281L558,281L557,280L556,280L555,279L554,279L553,278L552,278L551,277L550,277L545,274L543,274L542,273L540,273L539,272L537,272L534,270L532,270L531,269L530,269L529,268L527,268L526,267L523,267L522,266L519,266L518,265L515,265L514,264L511,264L510,263L506,263L505,262L500,262L499,261L494,261L493,260L485,260L484,259L453,259L452,260L444,260L443,261L437,261L436,262L431,262L430,263L427,263L426,264L422,264L421,265L419,265L418,266L415,266L414,267L411,267L410,268L408,268L407,269L405,269L402,271L400,271L399,272L397,272L394,274L392,274L389,276L387,276L386,277L385,277L384,278L383,278L382,279L381,279L380,280L377,281L375,283L374,283L373,284L370,285L368,287L365,288L363,290L362,290L360,292L359,292L356,295L355,295L353,297L352,297L349,300L348,300L344,304L343,304L322,325L322,326L319,329L319,330L315,334L315,335L312,338L312,339L310,341L310,342L307,345L307,346L306,347L305,350L303,352L302,355L300,357L300,358L299,359L299,360L298,361L298,362L297,363L297,364L296,365L296,366L293,371L293,373L291,376L291,378L290,379L290,381L289,382L289,384L287,387L287,390L286,391L286,393L285,394L285,397L284,398L284,401L283,402L283,405L282,406L282,409ZM308,428L309,427L309,421L310,420L310,417L311,416L311,412L312,411L312,408L313,407L313,405L314,404L314,401L315,400L315,398L316,397L316,395L318,392L318,390L320,387L320,385L321,384L321,383L324,378L324,376L326,374L326,373L327,372L328,369L330,367L331,364L333,362L333,361L335,359L335,358L337,356L337,355L340,352L340,351L344,347L344,346L359,331L360,331L365,326L366,326L369,323L370,323L372,321L373,321L375,319L376,319L381,315L382,315L383,314L384,314L385,313L386,313L387,312L390,311L392,309L393,309L396,307L398,307L401,305L403,305L406,303L408,303L409,302L411,302L412,301L414,301L415,300L417,300L418,299L420,299L421,298L424,298L425,297L428,297L429,296L433,296L434,295L439,295L440,294L445,294L446,293L455,293L456,292L481,292L482,293L490,293L491,294L497,294L498,295L503,295L504,296L507,296L508,297L511,297L512,298L515,298L516,299L519,299L520,300L522,300L523,301L525,301L528,303L530,303L531,304L533,304L534,305L535,305L540,308L542,308L543,309L544,309L546,311L548,311L550,313L551,313L552,314L555,315L557,317L558,317L560,319L561,319L563,321L564,321L567,324L568,324L571,327L572,327L587,341L587,342L593,348L593,349L598,354L598,355L600,357L600,358L602,360L602,361L606,366L606,367L607,368L607,369L608,370L608,371L609,372L609,373L610,374L610,375L611,376L611,377L612,378L612,379L613,380L613,381L616,386L616,388L617,389L617,391L618,392L618,393L619,394L619,396L620,397L620,400L621,401L621,403L622,404L622,407L623,408L623,412L624,413L624,416L625,417L625,422L626,423L626,431L627,432L627,440L626,441L624,439L623,439L621,437L620,437L618,435L617,435L614,432L613,432L608,428L607,428L606,427L603,426L601,424L600,424L599,423L596,422L594,420L593,420L592,419L591,419L590,418L589,418L588,417L587,417L586,416L585,416L580,413L578,413L575,411L573,411L572,410L571,410L566,407L564,407L563,406L561,406L560,405L558,405L557,404L555,404L554,403L552,403L551,402L549,402L548,401L546,401L545,400L543,400L542,399L539,399L538,398L536,398L535,397L531,397L530,396L527,396L526,395L522,395L521,394L517,394L516,393L512,393L511,392L505,392L504,391L497,391L496,390L485,390L484,389L456,389L455,390L444,390L443,391L436,391L435,392L430,392L429,393L424,393L423,394L419,394L418,395L414,395L413,396L410,396L409,397L406,397L405,398L401,398L400,399L397,399L396,400L394,400L393,401L391,401L390,402L388,402L387,403L384,403L383,404L381,404L380,405L378,405L377,406L375,406L372,408L370,408L369,409L367,409L366,410L365,410L364,411L362,411L357,414L355,414L354,415L353,415L352,416L351,416L350,417L349,417L348,418L347,418L346,419L345,419L344,420L343,420L342,421L341,421L340,422L339,422L338,423L337,423L336,424L335,424L334,425L331,426L329,428L326,429L321,433L320,433L319,434L318,434L316,436L315,436L312,439L311,439L309,441L308,440Z" fill="url(#paint1)" fill-rule="evenodd" clip-rule="evenodd"/>
</svg>
