<svg xmlns="http://www.w3.org/2000/svg" viewBox="22.7 26.2 1207.6 1207.6" width="24" height="24" color="#14231B" fill="currentColor" stroke-width="0" role="img" aria-label="rehal-quran"><path fill="currentColor" fill-rule="evenodd" d="M106 624v16l1 1v2l1 1v2l1 1 1 3 4 5v1l3 3h1l3 3h1l2 2h1l1 1h1l1 1h1l1 1h1l5 3h2l1 1h1l1 1h1l1 1h1l1 1h1l1 1h1l5 3h2l1 1h1l1 1h1l1 1h1l1 1h1l1 1h1l1 1h1l1 1h1l1 1h1l1 1h1l1 1h1l1 1h1l5 3h2l1 1h1l1 1h1l1 1h1l1 1h1l1 1h1l5 3h2l1 1h1l1 1h1l1 1h1l1 1h1l1 1h1l1 1h1l1 1h1l1 1h1l1 1h1l5 3h2l1 1h1l1 1h1l1 1h1l1 1h1l1 1h1l1 1h1l1 1h1l5 3h2l1 1h1l1 1h1l1 1h1l1 1h1l1 1h1l1 1h1l1 1h1l1 1h1l1 1h1l5 3h2l1 1h1l1 1h1l1 1h1l5 3h2l1 1h1l1 1h1l1 1h1l1 1h1l1 1h1l1 1h1l1 1h1l1 1h1l1 1h1l1 1h1l1 1h1l1 1h1l5 3h2l1 1h1l1 1h1l1 1h1l1 1h1l5 3h2l1 1h1l1 1h1l1 1h1l1 1h1l1 1h1l1 1h1l1 1h1l1 1h1l1 1h1l5 3h2l1 1h1l1 1h1l1 1h1l1 1h1l1 1h1l1 1h1l1 1h1l1 1h1l1 1h1l5 3h2l1 1h1l1 1h1l1 1h1l1 1h1l1 1h1l1 1h1l1 1h1l1 1h1l1 1h1l1 1h1l1 1h1l1 1h1l1 1h1l5 3h2l1 1h1l1 1h1l1 1h1l1 1h1l1 1h1l5 3h2l2 2h1l1 1h2l1 1h1l1 1h1l1 1h1l1 1h1l5 3h2l1 1h1l1 1h1l1 1h1l1 1h1l1 1h1l1 1h1l1 1h1l1 1h1l1 1h1l1 1h1l1 1h1l1 1h1l1 1h1l1 1h1l1 1h1l1 1h1l1 1h1l1 1h1l1 1h1l1 1h1l1 1h1l1 1h1l1 1h1l1 1 3 1 2 2h1l1 1h1l1 1h1l1 1 3 1 5 4-4 4h-1l-2 2-3 1-5 4h-1l-1 1-3 1-2 2-3 1-2 2-3 1-2 2-3 1-2 2h-1l-1 1h-1l-1 1h-1l-1 1h-1l-1 1h-1l-1 1-3 1-2 2h-1l-1 1-3 1-2 2h-1l-3 2h-2l-2 2h-1l-1 1h-1l-1 1h-1l-1 1h-1l-1 1h-1l-1 1h-1l-1 1h-1l-1 1-3 1-2 2h-1l-1 1h-1l-1 1h-1l-1 1h-1l-1 1h-1l-1 1h-1l-1 1h-1l-1 1h-1l-1 1h-1l-1 1h-1l-1 1h-1l-1 1h-1l-1 1h-1l-1 1h-1l-5 3h-2l-1 1h-2l-1 1h-6l-1-1-3-1-3-3v-1l-1-1v-5l1-1v-1l5-5 3-1 2-2h1l1-1h1l2-2 3-1 2-2h1l5-4h1l1-1 3-1 2-2h1l5-4 3-1 5-4 3-1 2-2h1l5-4h1l1-1h1l2-2 3-1 2-2h1l3-3h1l4-4h1v-1l3-3v-1l1-1v-9l-1-1v-1l-6-6h-1l-5-3h-3l-1-1h-6l-1 1h-4l-3 2h-2l-3 2h-2l-3 2h-2l-1 1h-1l-1 1h-1l-5 3h-2l-1 1h-1l-1 1h-1l-1 1h-1l-5 3h-2l-1 1h-1l-1 1h-1l-1 1h-1l-1 1h-1l-1 1h-1l-1 1h-1l-1 1-3 1-2 2h-1l-1 1-3 1-2 2h-1l-2 2h-1l-2 2h-1l-3 3h-1l-13 13v1l-6 6v1l-4 4v1l-5 5v1l-6 6v1l-5 5v1l-6 6v1l-5 5v1l-5 5v1l-5 5v1l-8 8v1l-4 4v1l-6 6v1l-8 8v1l-12 13v1l-3 3v1l-2 2v1l-1 1v2l-1 1v1l-1 1v2l-1 1v4l-1 1v7l1 1v4l1 1v2l1 1v2l1 1v1l2 2v1l3 3v1l2 2h1l4 4h1l1 1h1l1 1h1l5 3h3l1 1h3l1 1h17l1-1h4l1-1h3l1-1h2l1-1h2l1-1h1l1-1h2l1-1h1l1-1h1l5-3h2l2-2h1l5-3h2l1-1h1l1-1h1l1-1h1l1-1h1l1-1h1l1-1h1l1-1h1l1-1h1l1-1h1l1-1h1l1-1 3-1 2-2h1l1-1h1l1-1h1l1-1h1l1-1h1l1-1h1l1-1h1l1-1h1l1-1h1l1-1h1l1-1h1l1-1h1l1-1h1l1-1h1l1-1h1l1-1 3-1 2-2h2l1-1h1l1-1h1l1-1h1l1-1h1l1-1h1l1-1h1l1-1h1l1-1h1l1-1h1l1-1 3-1 2-2h1l1-1h1l1-1h1l1-1h1l1-1h1l1-1h1l1-1h1l1-1h1l1-1h1l1-1h1l1-1h1l1-1h1l1-1h1l1-1h1l1-1h1l1-1h1l1-1 3-1 2-2h1l5-3h2l1-1h1l2-2h1l1-1h1l1-1h1l1-1h1l1-1h1l1-1h1l1-1h1l1-1h1l1-1 3-1 2-2h2l1-1 3-1 2-2h1l1-1h1l1-1h1l1-1h1l1-1h1l1-1h1l1-1h1l1-1h1l1-1h1l1-1h1l1-1h1l1-1h1l1-1h1l1-1h1l1-1h1l1-1h1l1-1 3-1 2-2h1l1-1h1l1-1h1l1-1h1l1-1h1l1-1h1l1-1h1l1-1 3-1 2-2h2l1-1h1l1-1h1l1-1 3-1 2-2h1l1-1h1l1-1h1l1-1h1l1-1h1l1-1h1l1-1h1l1-1h1l1-1h1l1-1h1l1-1h1l1-1h1l1-1h1l1-1h1l1-1 3-1 2-2h1l1-1h1l1-1h1l1-1h1l1-1h1l1-1h1l5-3h1l3 2h2l2 2h1l1 1h1l1 1h1l1 1h1l1 1 3 1 2 2h1l1 1h1l1 1h1l1 1h1l1 1h1l1 1h1l1 1h1l1 1h1l1 1h1l1 1h1l1 1h1l1 1h1l1 1 3 1 2 2h1l1 1h1l1 1h1l1 1h1l1 1h1l1 1h1l1 1h1l1 1h1l1 1h1l1 1h1l1 1h1l1 1h1l1 1h1l1 1h1l1 1h1l1 1 3 1 2 2h1l1 1h1l1 1h1l1 1h1l1 1h1l1 1h1l1 1h1l1 1h1l1 1h1l1 1h1l1 1h1l1 1h1l1 1 3 1 2 2h1l1 1h1l1 1h1l1 1h1l1 1h1l1 1h1l1 1h1l1 1h1l1 1h1l1 1h1l1 1h1l1 1h1l1 1h1l1 1h1l1 1 3 1 2 2h1l1 1h1l1 1h1l1 1h1l1 1h1l1 1h1l1 1h1l1 1h1l1 1h1l1 1h1l1 1h1l1 1h1l1 1h1l1 1h1l1 1h1l1 1h1l1 1h1l1 1h1l1 1h1l1 1h1l1 1h1l1 1h1l1 1h1l1 1h1l1 1 3 1 2 2h1l1 1h1l1 1h1l1 1h1l1 1h1l1 1h1l1 1h1l1 1h1l1 1h1l1 1h1l1 1h1l1 1h1l1 1h1l1 1h1l1 1h1l1 1h1l1 1h1l1 1h1l1 1h1l1 1 3 1 2 2h1l1 1h1l1 1h1l1 1h1l1 1h1l1 1h1l1 1h1l1 1h1l1 1h1l1 1h1l1 1h1l1 1h1l1 1h1l1 1h1l1 1h1l1 1h1l1 1h1l1 1h1l1 1h1l5 3h2l1 1h1l1 1h1l1 1h1l1 1h1l1 1h1l5 3h2l5 3h2l1 1h2l1 1h3l1 1h5l1 1h15l1-1h4l1-1h3l1-1h1l1-1h1l1-1h1l1-1 3-1 4-4h1l1-1v-1l4-4v-1l2-2v-1l1-1v-2l1-1v-2l1-1v-4l1-1v-7l-1-1v-4l-1-1v-2l-1-1v-1l-1-1v-1l-1-1v-1l-1-1-1-3-3-3v-1l-6-6v-1l-6-6v-1l-10-10v-1l-4-4v-1l-7-7v-1l-5-5v-1l-5-5v-1l-6-6v-1l-12-13v-1l-4-4v-1l-7-7v-1l-4-4v-1l-4-4v-1l-5-5v-1l-13-13h-1l-2-2h-1l-2-2h-1l-3-3h-1l-2-2h-1l-1-1h-1l-1-1h-1l-1-1h-1l-1-1-3-1-2-2h-1l-1-1h-1l-1-1h-1l-5-3h-2l-1-1h-1l-1-1h-1l-1-1h-1l-5-3h-2l-5-3h-2l-1-1h-1l-5-3h-2l-3-2h-2l-1-1h-1l-1-1h-2l-1-1h-8l-1 1h-2l-1 1h-2l-1 1h-1l-2 2h-1l-4 4v1l-2 3v8l5 7h1l7 6h1l2 2 3 1 2 2 3 1 2 2h1l2 2h1l5 4h1l1 1h1l2 2h1l1 1 3 1 2 2h1l5 4h1l1 1h1l2 2 3 1 3 3h1l1 1 3 1 2 2 3 1 2 2h1l5 5v1l1 1v5l-1 1v1l-4 4h-2l-1 1h-7l-1-1h-2l-1-1h-1l-1-1h-1l-1-1h-1l-5-3h-2l-1-1h-1l-1-1-3-1-2-2h-1l-1-1h-1l-1-1h-1l-1-1h-1l-1-1h-1l-1-1h-1l-1-1-3-1-2-2h-1l-1-1h-1l-1-1h-1l-1-1h-1l-1-1h-1l-1-1h-1l-1-1-3-1-2-2h-1l-1-1h-1l-1-1h-1l-1-1h-1l-1-1h-1l-1-1-3-1-2-2h-1l-1-1h-1l-1-1h-1l-1-1h-1l-1-1-3-1-2-2h-1l-1-1-3-1-2-2h-1l-1-1-3-1-2-2-3-1-5-4h-1l-1-1h-1l-2-2-3-1-2-2h-1l-4-4 2-2h1l2-2h1l1-1 3-1 2-2h1l1-1h1l1-1 3-1 2-2h1l1-1h1l1-1h1l1-1h1l1-1h1l1-1h1l1-1h1l1-1h1l1-1h1l5-3h2l1-1h1l1-1h1l1-1h1l1-1h1l1-1h1l1-1h1l1-1h1l1-1h1l1-1h1l5-3h2l1-1h1l1-1h1l1-1h1l1-1h1l1-1h1l1-1h1l5-3h2l1-1h1l1-1h1l1-1h1l1-1h1l1-1h1l1-1h1l1-1h1l1-1h1l5-3h2l1-1h1l1-1h1l1-1h1l1-1h1l1-1h1l1-1h1l1-1h1l1-1h1l1-1h1l1-1h1l1-1h1l5-3h2l1-1h1l1-1h1l1-1h1l1-1h1l1-1h1l5-3h2l1-1h1l1-1h1l1-1h1l1-1h1l1-1h1l1-1h1l1-1h1l5-3h2l1-1h1l1-1h1l1-1h1l1-1h1l1-1h1l1-1h1l1-1h1l1-1h1l1-1h1l1-1h1l5-3h2l1-1h1l1-1h1l1-1h1l1-1h1l1-1h1l1-1h1l1-1h1l1-1h1l1-1h1l1-1h1l1-1h1l5-3h2l1-1h1l1-1h1l1-1h1l1-1h1l1-1h1l5-3h2l1-1h1l1-1h1l1-1h1l1-1h1l1-1h1l1-1h1l1-1h1l1-1h1l5-3h2l1-1h1l1-1h1l1-1h1l1-1h1l1-1h1l5-3h2l1-1h1l1-1h1l1-1h1l1-1h1l1-1h1l1-1h1l1-1h1l1-1h1l5-3h2l1-1h1l1-1h1l1-1h1l1-1h1l1-1h1l1-1h1l1-1h1l5-3h2l1-1h1l1-1h1l1-1h1l1-1h1l1-1h1l1-1h1l1-1h1l1-1h1l1-1h1l1-1h1l5-3h2l1-1h1l1-1h1l1-1h1l1-1h1l1-1h1l5-3h2l2-2h2l1-1h1l1-1h1l1-1 3-1 2-2 3-1 7-6v-1l3-3v-1l3-5v-2l1-1v-2l1-1v-16l-1-1v-2l-1-1v-3l-3-3v-1l-2-2v-1l-6-6h-1l-2-2h-1l-5-3h-2l-1-1h-3l-1-1h-10l-1 1h-3l-1 1h-2l-1 1h-1l-3 2h-2l-1 1h-1l-1 1h-1l-1 1h-1l-1 1h-1l-1 1h-1l-1 1h-1l-5 3h-2l-1 1h-1l-1 1h-1l-1 1h-1l-1 1h-1l-1 1h-1l-1 1h-1l-5 3h-2l-1 1h-1l-1 1h-1l-1 1h-1l-1 1h-1l-1 1h-1l-1 1h-1l-5 3h-2l-1 1h-1l-1 1h-1l-1 1h-1l-1 1h-1l-1 1h-1l-1 1h-1l-5 3h-2l-1 1h-1l-1 1h-1l-1 1h-1l-1 1h-1l-1 1h-1l-1 1h-1l-5 3h-2l-1 1h-1l-1 1h-1l-1 1h-1l-1 1h-1l-1 1h-1l-5 3h-2l-1 1h-1l-1 1h-1l-1 1h-1l-1 1h-1l-1 1h-1l-5 3h-2l-1 1h-1l-1 1h-1l-1 1h-1l-1 1h-1l-1 1h-1l-1 1h-1l-5 3h-2l-1 1h-1l-1 1h-1l-1 1h-1l-1 1h-1l-1 1h-1l-5 3h-2l-1 1h-1l-1 1h-1l-1 1h-1l-1 1h-1l-5 3h-2l-1 1h-1l-1 1h-1l-1 1h-1l-1 1h-1l-1 1h-1l-5 3h-2l-1 1h-1l-1 1h-1l-1 1h-1l-1 1h-1l-5 3h-2l-1 1h-1l-1 1h-1l-1 1h-1l-1 1h-1l-1 1h-1l-1 1h-1l-5 3h-2l-1 1h-1l-1 1h-1l-1 1h-1l-1 1h-1l-1 1h-1l-1 1h-1l-5 3h-2l-1 1h-1l-1 1h-1l-5 3h-2l-1 1h-1l-1 1h-1l-1 1h-1l-1 1h-1l-1 1h-1l-5 3h-2l-1 1h-1l-1 1h-1l-1 1h-1l-1 1h-1l-5 3h-2l-1 1h-1l-1 1h-1l-1 1h-1l-1 1h-1l-5 3h-2l-1 1h-1l-1 1h-1l-1 1h-1l-5 3h-2l-1 1h-1l-1 1h-1l-1 1h-1l-1 1h-1l-1 1h-1l-5 3h-2l-1 1h-1l-1 1h-1l-1 1h-1l-1 1h-1l-5 3h-2l-1 1h-1l-1 1h-1l-1 1h-1l-1 1h-1l-5 3h-2l-1 1h-1l-1 1h-1l-1 1h-1l-1 1h-1l-1 1h-1l-1 1h-1l-1 1-3 1-2 2h-1l-1 1h-1l-1 1h-1l-1 1-3 1-2 2h-1l-1 1h-1l-2 2-3 1-2 2h-1l-2 2h-1l-2 2h-1l-2 2h-1l-7 6h-1l-4 4h-1l-6 6h-1l-28 28v1l-2 2h-1l-1-1v-1l-29-29h-1l-6-6h-1l-4-4h-1l-7-6h-1l-2-2h-1l-2-2h-1l-5-4h-1l-1-1h-1l-2-2-3-1-2-2h-1l-1-1-3-1-2-2h-1l-1-1h-1l-1-1h-1l-1-1h-1l-1-1h-1l-1-1h-1l-1-1h-1l-1-1h-1l-1-1h-1l-5-3h-2l-1-1h-1l-1-1h-1l-1-1h-1l-1-1h-1l-5-3h-2l-1-1h-1l-1-1h-1l-1-1h-1l-1-1h-1l-5-3h-2l-1-1h-1l-1-1h-1l-1-1h-1l-1-1h-1l-5-3h-2l-1-1h-1l-1-1h-1l-1-1h-1l-5-3h-2l-1-1h-1l-1-1h-1l-1-1h-1l-1-1h-1l-1-1h-1l-5-3h-2l-1-1h-1l-1-1h-1l-1-1h-1l-1-1h-1l-5-3h-2l-1-1h-1l-1-1h-1l-1-1h-1l-1-1h-1l-1-1h-1l-5-3h-2l-1-1h-1l-1-1h-1l-1-1h-1l-5-3h-2l-1-1h-1l-1-1h-1l-1-1h-1l-1-1h-1l-1-1h-1l-5-3h-2l-1-1h-1l-1-1h-1l-1-1h-1l-1-1h-1l-5-3h-2l-1-1h-1l-1-1h-1l-1-1h-1l-1-1h-1l-1-1h-1l-5-3h-2l-1-1h-1l-1-1h-1l-1-1h-1l-1-1h-1l-5-3h-2l-1-1h-1l-1-1h-1l-1-1h-1l-1-1h-1l-1-1h-1l-1-1h-1l-5-3h-2l-1-1h-1l-1-1h-1l-1-1h-1l-5-3h-2l-1-1h-1l-1-1h-1l-1-1h-1l-1-1h-1l-1-1h-1l-1-1h-1l-1-1h-1l-5-3h-2l-1-1h-1l-1-1h-1l-1-1h-1l-1-1h-1l-1-1h-1l-5-3h-2l-1-1h-1l-1-1h-1l-1-1h-1l-1-1h-1l-1-1h-1l-1-1h-1l-5-3h-2l-1-1h-1l-1-1h-1l-1-1h-1l-1-1h-1l-1-1h-1l-1-1h-1l-5-3h-2l-1-1h-1l-1-1h-1l-1-1h-1l-1-1h-1l-1-1h-1l-1-1h-1l-5-3h-2l-1-1h-1l-1-1h-1l-1-1h-1l-1-1h-1l-1-1h-1l-5-3h-2l-1-1h-1l-1-1h-1l-1-1h-1l-1-1h-1l-1-1h-1l-1-1h-1l-1-1h-1l-5-3h-2l-1-1h-1l-1-1h-1l-1-1h-1l-1-1h-1l-5-3h-2l-1-1h-1l-5-3h-2l-1-1h-3l-1-1h-9l-1 1h-4l-1 1h-2l-1 1h-2l-2 2h-1l-2 2h-1l-6 6v1l-3 3v1l-2 3v2l-1 1v2Zm111-73v8l1 1v3l1 1v1l1 1 1 3 3 3v1l5 4h1l1 1h1l1 1h1l1 1h1l1 1h1l1 1h1l1 1h1l1 1h1l1 1h1l1 1h1l1 1h1l1 1 3 1 2 2h1l1 1h1l5 3h2l1 1h1l1 1h1l1 1 3 1 2 2h1l1 1h1l1 1h1l1 1h1l1 1h1l1 1h1l1 1h1l1 1h1l1 1h1l1 1h1l1 1h1l1 1h1l1 1h1l1 1h1l1 1h1l1 1h1l1 1h1l1 1h1l1 1h1l1 1 3 1 2 2h2l1 1h1l1 1h1l1 1h1l1 1h1l1 1 3 1 2 2h1l1 1h1l1 1h1l1 1h1l1 1h1l1 1h1l1 1h1l1 1h1l1 1h1l1 1h1l1 1h1l1 1h1l1 1h1l1 1h1l1 1h1l1 1h1l1 1h1l1 1h1l1 1h1l1 1h1l1 1h1l1 1h1l1 1h1l1 1h1l1 1h1l1 1h1l1 1h1l1 1h1l1 1h1l1 1h1l1 1h1l1 1 3 1 2 2h1l1 1h1l1 1h1l1 1h1l1 1h1l1 1h1l1 1h1l1 1h1l1 1h1l1 1h1l1 1h1l1 1h1l1 1h1l1 1h1l1 1h1l1 1h1l1 1h1l1 1h1l1 1 3 1 2 2h1l1 1h1l1 1h1l1 1h1l5 3h2l2 2h1l1 1h1l1 1h1l1 1h1l1 1h1l1 1h1l1 1h1l1 1h1l1 1h1l1 1h1l1 1h1l1 1h1l1 1h1l1 1h1l1 1h1l1 1h1l1 1h1l1 1 3 1 2 2h1l1 1h1l1 1h1l1 1h1l1 1h1l1 1h1l1 1h1l1 1h1l1 1h1l1 1h1l1 1h1l1 1h1l1 1 3 1 2 2h1l1 1h1l1 1h1l1 1h1l1 1h1l1 1h1l1 1h1l1 1h1l1 1h1l1 1h1l1 1 3 1 2 2h1l1 1h1l1 1h1l1 1 3 1 2 2 3 1 2 2h1l1 1 3 1 5 4 3 1 3 3h1l4 4h1l6 6h1l16 17h1l5 3h3l1 1h7l1-1h3l1-1h1l1-1 3-1 9-9v-1l6-6h1l8-8h1l3-3h1l2-2h1l2-2h1l2-2h1l5-4h1l1-1 3-1 2-2h1l1-1h1l1-1 3-1 2-2h1l1-1h1l1-1h1l1-1 3-1 2-2h1l1-1h1l1-1h1l1-1h1l1-1h1l1-1h1l1-1h1l1-1h1l1-1h1l1-1h1l1-1h1l1-1h1l1-1h1l1-1 3-1 2-2h1l1-1h1l1-1h1l1-1h1l1-1h1l1-1h1l1-1h1l1-1h1l1-1h1l1-1h1l1-1h1l1-1h1l1-1h1l1-1h1l1-1 3-1 2-2h1l1-1h1l1-1h1l1-1h1l1-1h1l1-1h1l1-1h1l1-1h1l1-1h1l1-1h1l1-1h1l1-1h1l1-1h1l1-1h1l1-1h1l1-1h1l1-1h1l1-1h1l1-1h1l1-1h1l1-1 3-1 2-2h1l1-1h1l1-1h1l1-1h1l5-3h2l2-2h1l1-1h1l1-1h1l1-1h1l1-1h1l1-1h1l1-1 3-1 2-2h1l1-1h1l5-3h2l1-1h1l1-1 3-1 2-2h1l1-1h1l5-3h2l1-1h1l2-2h1l1-1h1l1-1h1l1-1h1l1-1h1l1-1h1l1-1h1l1-1h1l1-1h1l1-1h1l1-1h1l1-1h1l1-1h1l1-1h1l1-1h1l1-1h1l1-1h1l1-1h1l1-1h1l1-1h1l1-1h1l1-1h1l1-1h1l1-1h1l1-1h1l1-1h1l1-1h1l1-1h1l1-1h1l1-1 3-1 2-2h1l1-1h1l1-1h1l1-1h1l1-1h1l1-1h1l1-1h1l1-1h1l1-1h1l1-1h1l1-1h1l1-1h1l1-1h1l1-1h1l1-1h1l1-1h1l1-1h1l1-1h1l1-1h1l1-1h1l5-3h2l1-1h1l2-2h1l1-1h1l1-1h1l5-3h2l1-1h1l2-2h1l3-2h2l1-1h1l2-2h1l8-8v-1l3-5v-3l1-1v-8l-1-1v-3l-1-1v-3l-1-1v-3l-1-1v-4l-1-1v-4l-1-1v-3l-1-1v-4l-1-1v-3l-1-1v-3l-1-1v-4l-1-1v-4l-1-1v-3l-1-1v-3l-1-1v-3l-1-1v-4l-1-1v-3l-1-1v-3l-1-1v-3l-1-1v-3l-1-1v-4l-1-1v-3l-1-1v-3l-1-1v-4l-1-1v-3l-1-1v-4l-1-1v-3l-1-1v-3l-1-1v-3l-1-1v-3l-1-1v-4l-1-1v-3l-1-1v-3l-1-1v-3l-1-1v-3l-1-1v-4l-1-1v-3l-1-1v-3l-1-1v-3l-1-1v-3l-1-1v-4l-1-1v-3l-1-1v-4l-1-1v-3l-1-1v-3l-1-1v-3l-1-1v-4l-1-1v-3l-1-1v-3l-1-1v-3l-1-1v-3l-1-1v-2l-1-1v-3l-1-1v-4l-1-1v-3l-1-1v-3l-1-1v-3l-1-1v-4l-1-1v-3l-1-1v-2l1-1-2-3v-4l-1-1v-3l-1-1v-3l-1-1v-3l-1-1v-3l-1-1v-3l-1-1v-3l-1-1v-3l-1-1v-4l-1-1v-3l-1-1v-3l-1-1v-3l-1-1v-3l-1-1v-4l-1-1v-3l-1-1v-2l-1-1-1-3-2-2v-1l-4-4h-1l-3-3h-1l-3-2h-3l-1-1h-15l-1 1h-3l-1 1h-2l-1 1h-2l-1 1h-2l-1 1h-1l-1 1h-2l-5 3h-2l-1 1h-1l-1 1h-1l-1 1h-1l-5 3h-2l-1 1h-1l-5 3h-2l-1 1h-1l-1 1h-1l-1 1h-1l-1 1h-1l-1 1h-1l-5 3h-2l-1 1h-1l-1 1h-1l-1 1h-1l-1 1h-1l-1 1h-1l-1 1h-1l-1 1h-1l-1 1h-1l-5 3h-2l-1 1h-1l-2 2h-2l-1 1h-1l-1 1h-1l-1 1h-1l-1 1h-1l-1 1h-1l-1 1h-1l-1 1h-1l-1 1h-1l-1 1h-1l-1 1h-1l-1 1h-1l-1 1h-1l-1 1h-1l-1 1h-1l-5 3h-2l-1 1h-1l-1 1h-1l-1 1-3 1-2 2h-1l-3 2h-2l-1 1h-1l-1 1h-1l-1 1h-1l-1 1h-1l-1 1h-1l-1 1h-1l-5 3h-2l-1 1h-1l-1 1-3 1-2 2h-1l-5 3h-2l-1 1h-1l-1 1h-1l-1 1-3 1-2 2h-2l-1 1h-1l-1 1h-1l-1 1h-1l-1 1h-1l-1 1-3 1-2 2h-2l-1 1h-1l-1 1h-1l-1 1h-1l-1 1h-1l-1 1h-1l-1 1h-1l-1 1h-1l-1 1h-1l-1 1h-1l-1 1-3 1-2 2h-1l-1 1h-1l-1 1h-1l-1 1h-1l-1 1h-1l-1 1-3 1-2 2-3 1-2 2-3 1-3 3h-1l-7 7v1l-4 5v2l-1 1v2l-1 1v6h23l1 1h2l5 5v1h3l2-2h1l1-1h1l1-1h1l1-1h1l1-1h1l1-1h1l1-1h1l1-1h1l5-3h2l2-2h1l3-2h2l1-1h1l1-1h1l1-1h1l1-1h1l1-1h1l1-1h1l1-1h1l1-1h1l1-1h1l1-1h1l1-1h1l1-1h1l1-1h1l1-1h1l1-1h1l1-1h1l5-3h2l1-1h1l1-1h1l1-1h1l1-1h1l1-1h1l1-1h1l1-1h1l1-1h1l1-1h1l1-1h1l1-1h1l1-1h1l1-1h1l5-3h2l1-1h1l1-1h1l1-1h1l1-1h1l1-1h1l1-1h1l1-1h1l1-1h1l1-1h1l1-1h1l1-1h1l1-1h1l1-1h1l1-1h1l1-1h1l5-3h2l1-1 3-1 2-2h1l5-3h2l1-1h1l1-1h1l1-1 3-1 2-2h2l1-1h1l5-3h2l2-2h1l1-1h1l1-1h1l1-1h1l5-3h2l1-1h1l1-1h1l1-1h1l1-1h1l1-1h1l1-1h1l1-1h1l1-1h1l1-1h1l1-1h1l5-3h2l1-1h1l1-1h1l1-1h1l1-1h1l1-1h1l1-1h1l1-1 3-1 2 3v5l1 1v4l1 1v3l1 1v4l1 1v4l1 1v4l1 1v4l1 1v4l1 1v4l1 1v3l1 1v5l1 1v4l1 1v3l1 1v4l1 1v4l1 1v4l1 1v4l1 1v5l1 1v3l1 1v3l1 1v4l1 1v5l1 1v4l1 1v4l1 1v4l1 1v3l1 1v4l1 1v4l1 1v3l1 1v4l1 1v5l1 1v4l1 1v3l1 1v4l1 1v4l1 1v4l1 1v3l1 1v5l1 1v4l1 1v5l1 1v4l1 1v3l1 1v4l1 1v4l1 1v4l1 1v4l1 1v4l1 1v4l1 1v3l1 1v4l1 1v4l1 1v4l1 1v4l1 1v3l1 1v4l2 3v5l1 1v4l1 1v3l1 1v4l1 1v4l1 1v4l1 1v3l-2 2h-1l-3 2h-2l-1 1h-1l-1 1h-1l-1 1h-1l-1 1h-1l-1 1h-1l-1 1h-1l-1 1h-1l-5 3h-2l-1 1h-1l-1 1h-1l-1 1h-1l-1 1h-1l-1 1h-1l-5 3h-2l-1 1h-1l-1 1h-1l-1 1h-1l-1 1h-1l-1 1h-1l-5 3h-2l-1 1h-1l-1 1h-1l-1 1h-1l-1 1h-1l-1 1h-1l-5 3h-2l-1 1h-1l-1 1h-1l-1 1h-1l-1 1h-1l-5 3h-2l-1 1h-1l-1 1h-1l-1 1h-1l-1 1h-1l-5 3h-2l-1 1h-1l-1 1h-1l-1 1h-1l-5 3h-2l-1 1h-1l-1 1h-1l-1 1h-1l-1 1h-1l-1 1h-1l-1 1h-1l-5 3h-2l-1 1h-1l-1 1h-1l-1 1h-1l-1 1h-1l-5 3h-2l-1 1h-1l-1 1h-1l-1 1h-1l-1 1h-1l-5 3h-2l-1 1h-1l-1 1h-1l-1 1h-1l-1 1h-1l-1 1h-1l-5 3h-2l-1 1h-1l-1 1h-1l-1 1h-1l-1 1h-1l-1 1h-1l-5 3h-2l-1 1h-1l-1 1h-1l-1 1h-1l-1 1h-1l-1 1h-1l-5 3h-2l-1 1h-1l-1 1h-1l-1 1h-1l-1 1h-1l-5 3h-2l-1 1h-1l-1 1h-1l-1 1h-1l-1 1h-1l-1 1h-1l-1 1h-1l-5 3h-2l-1 1h-1l-1 1h-1l-1 1h-1l-1 1h-1l-1 1h-1l-1 1h-1l-1 1h-1l-1 1h-1l-1 1h-1l-1 1h-1l-1 1h-1l-5 3h-2l-1 1-3 1-2 2h-1l-1 1h-1l-1 1h-1l-1 1-3 1-2 2-3 1-5 4-3 1-2 2h-1l-2 2h-1l-2 2h-1l-3 3h-1l-4 4h-1l-5 5-1-1v-5l1-1v-2l1-1v-1l-1-1v-95l-1-1v-5l1-1v-96l-1-1v-11l1-1v-30h-1l-7 7v1l-9 9h-1l-1 1h-2l-1 1h-5l-1-1h-2l-1-1h-1l-6-6v-1l-10-10-1 1v127l1 1v3l-1 1v108l-1 1 1 1v2l1 1v6l-1 1-5-5h-1l-4-4h-1l-2-2h-1l-3-3h-1l-2-2-3-1-2-2h-1l-2-2-3-1-2-2-3-1-2-2h-1l-1-1h-1l-1-1h-1l-1-1h-1l-1-1h-1l-1-1h-1l-1-1h-1l-1-1h-1l-1-1h-1l-1-1h-1l-1-1h-1l-1-1h-1l-1-1h-1l-1-1h-1l-1-1h-1l-1-1h-1l-1-1h-1l-1-1h-1l-1-1h-1l-5-3h-2l-1-1h-1l-1-1h-1l-1-1h-1l-1-1h-1l-5-3h-2l-1-1h-1l-1-1h-1l-1-1h-1l-1-1h-1l-1-1h-1l-1-1h-1l-5-3h-2l-1-1h-1l-1-1h-1l-1-1h-1l-1-1h-1l-5-3h-2l-1-1h-1l-1-1h-1l-1-1h-1l-1-1h-1l-1-1h-1l-1-1h-1l-5-3h-2l-1-1h-1l-1-1h-1l-1-1h-1l-1-1h-1l-5-3h-2l-1-1h-1l-1-1h-1l-1-1h-1l-1-1h-1l-1-1h-1l-5-3h-2l-1-1h-1l-1-1h-1l-1-1h-1l-1-1h-1l-1-1h-1l-5-3h-2l-1-1h-1l-1-1h-1l-1-1h-1l-1-1h-1l-1-1h-1l-5-3h-2l-1-1h-1l-1-1h-1l-1-1h-1l-5-3h-2l-1-1h-1l-1-1h-1l-1-1h-1l-1-1h-1l-1-1h-1l-5-3h-2l-1-1h-1l-1-1h-1l-1-1h-1l-5-3h-2l-1-1h-1l-1-1h-1l-1-1h-1l-1-1h-1l-1-1h-1l-5-3h-2l-1-1h-1l-1-1h-1l-1-1h-1l-1-1h-1l-1-1h-1l-5-3h-2l-1-1h-1l-1-1h-1l-1-1h-1l-1-1h-1l-1-1h-1l-1-1h-1l-1-1h-1l-1-1h-1l-5-3h-2l-1-1h-1l-1-1h-1l-1-1h-1l-1-1h-1l-5-3h-2l-1-1-3-1-2-2v-3l1-1v-4l1-1v-4l1-1v-4l1-1v-4l1-1v-3l1-1v-4l1-1v-2l1-1v-3l1-1v-4l1-1v-4l1-1v-4l1-1v-3l1-1v-4l1-1v-4l1-1v-4l1-1v-4l1-1v-4l1-1v-4l1-1v-4l1-1v-4l1-1v-4l1-1v-4l1-1v-4l1-1v-4l1-1v-4l1-1v-4l1-1v-3l1-1v-4l1-1v-5l1-1v-3l1-1v-4l1-1v-4l1-1v-4l1-1v-3l1-1v-5l1-1v-3l1-1v-4l1-1v-4l1-1v-5l1-1v-4l1-1v-3l1-1v-5l1-1v-3l1-1v-4l1-1v-4l1-1v-4l1-1v-4l1-1v-4l1-1v-4l1-1v-4l1-1v-3l1-1v-4l1-1v-3l1-1v-5l1-1v-3l1-1v-5l1-1v-4l1-1v-3l1-1v-4l1-1v-4l1-1v-4l1-1v-4l1-1v-2l1-1h1l1 1h1l1 1h1l1 1h1l1 1h1l5 3h2l1 1h1l1 1h1l1 1h1l1 1h1l1 1h1l1 1h1l1 1h1l1 1h1l1 1h1l1 1h1l1 1h1l5 3h2l1 1h1l2 2h1l1 1h1l1 1h1l1 1h1l5 3h2l1 1h1l1 1h1l1 1h1l1 1h1l1 1h1l1 1h1l1 1h1l1 1h1l5 3h2l2 2h1l1 1h1l5 3h2l1 1h1l1 1h1l1 1h1l1 1h1l1 1h1l1 1h1l1 1h1l5 3h2l2 2h1l1 1h1l5 3h2l1 1h1l1 1h1l1 1h1l1 1h1l1 1h1l1 1h1l1 1h1l1 1h1l1 1h1l1 1h1l1 1 3 1 2 2h2l1 1h1l1 1h1l5 3h2l1 1h1l1 1 3 1 2 2h1l1 1h1l1 1h1l1 1h1l1 1h1l1 1h1l5 3h2l1 1h1l1 1h1l1 1h1l1 1h1l1 1h1l1 1h1l1 1h1l1 1h1l1 1h1l1 1 3 1 2 2h1l3 2h2l1 1h1l1 1h1l1 1 3 1 2 2h1v-1l6-6h3l1-1h21l1-1v-4l-1-1v-2l-1-1v-1l-1-1-1-3-2-2v-1l-8-8h-1l-2-2h-1l-5-4-3-1-2-2h-1l-1-1h-1l-1-1h-1l-1-1h-1l-1-1h-1l-1-1h-1l-1-1h-1l-1-1h-1l-1-1h-1l-1-1h-1l-1-1-3-1-2-2h-1l-1-1h-1l-1-1h-1l-1-1h-1l-1-1h-1l-1-1h-1l-1-1h-1l-1-1h-1l-1-1h-1l-1-1h-1l-5-3h-2l-1-1h-1l-1-1h-1l-1-1h-1l-1-1h-1l-1-1h-1l-1-1h-1l-1-1h-1l-1-1h-1l-1-1h-1l-1-1h-1l-1-1h-1l-1-1h-1l-1-1h-1l-1-1h-1l-1-1h-1l-1-1h-1l-5-3h-2l-1-1h-1l-1-1h-1l-1-1h-1l-1-1-3-1-2-2h-1l-1-1h-1l-5-3h-2l-1-1h-1l-1-1h-1l-1-1h-1l-1-1h-1l-1-1h-1l-1-1h-1l-1-1h-1l-1-1h-1l-1-1h-1l-1-1h-1l-1-1h-1l-1-1h-1l-1-1h-1l-1-1h-1l-1-1h-1l-5-3h-2l-1-1h-1l-1-1h-1l-1-1h-1l-1-1h-1l-1-1h-1l-1-1h-1l-1-1h-1l-1-1h-1l-1-1h-1l-1-1h-1l-1-1h-1l-1-1h-1l-1-1h-1l-5-3h-2l-1-1h-1l-1-1h-1l-1-1h-1l-1-1h-1l-1-1h-1l-1-1h-1l-1-1h-1l-1-1h-1l-1-1h-1l-5-3h-2l-1-1h-1l-5-3h-2l-1-1h-1l-1-1h-2l-5-3h-2l-1-1h-1l-5-3h-3l-1-1h-3l-1-1h-14l-1 1h-3l-1 1h-2l-1 1h-1l-3 3h-1l-3 3v1l-4 5v2l-2 3v3l-1 1v3l-1 1v4l-1 1v3l-1 1v3l-1 1v3l-1 1v3l-1 1v3l-1 1v4l-1 1v3l-1 1v3l-1 1v4l-1 1v3l-1 1v3l-1 1v3l-1 1v5l-1 1v4l-1 1v3l-1 1v3l-1 1v4l-1 1v3l-1 1v3l-1 1v3l-1 1v2l-1 1v3l-1 1v3l-1 1v4l-1 1v3l-1 1v3l-1 1v3l-1 1v3l-1 1v3l-1 1v4l-1 1v3l-1 1v4l-1 1v3l-1 1v3l-1 1v4l-1 1v3l-1 1v3l-1 1v3l-1 1v3l-1 1v4l-1 1v2l-1 1v4l-1 1v3l-1 1v3l-1 1v4l-1 1v3l-1 1v3l-1 1v3l-1 1v4l-1 1v4l-1 1v3l-1 1v3l-1 1v3l-1 1v3l-1 1v4l-1 1v3l-1 1v3l-1 1v4l-1 1v3l-1 1v3l-1 1v3l-1 1v4l-1 1v3l-1 1v3l-1 1v5l-1 1v3l-1 1v3l-1 1v3l-1 1v3l-1 1v4l-1 1v3Z" clip-rule="evenodd"/><path fill="currentColor" fill-rule="evenodd" d="M980 530h-2l-1 1h-1l-3 2h-2l-1 1h-1l-1 1h-1l-1 1h-1l-1 1h-1l-5 3h-2l-1 1h-1l-1 1h-1l-1 1h-1l-1 1h-1l-1 1h-1l-5 3h-2l-1 1h-1l-1 1h-1l-1 1h-1l-1 1h-1l-1 1h-1l-1 1h-1l-5 3h-2l-6 4h-2l-1 1h-1l-5 3h-2l-1 1h-1l-1 1h-1l-1 1h-1l-1 1h-1l-1 1h-1l-1 1h-1l-1 1h-1l-1 1h-1l-1 1h-1l-5 3h-2l-5 3h-2l-2 2h-1l-3 2h-2l-1 1h-1l-1 1h-1l-1 1h-1l-1 1h-1l-1 1h-1l-1 1h-1l-1 1h-1l-5 3h-2l-3 2h-2l-2 2h-1l-5 3h-2l-1 1h-1l-1 1h-1l-1 1h-1l-1 1h-1l-1 1h-1l-1 1h-1l-5 3h-2l-1 1h-1l-1 1h-1l-1 1h-1l-1 1h-1l-1 1h-1l-5 3h-2l-1 1h-1l-1 1h-1l-1 1h-1l-1 1h-1l-1 1h-1l-1 1h-1l-5 3h-2l-1 1h-1l-1 1h-1l-1 1h-1l-1 1h-1l-1 1h-1l-1 1h-1l-1 1h-1l-1 1h-1l-1 1h-1l-1 1h-1l-1 1h-1l-5 3h-2l-1 1h-1l-1 1h-1l-1 1h-1l-1 1h-1l-1 1h-1l-1 1h-1l-1 1h-1l-1 1h-1l-1 1-3 1-2 2h-1l-1 1-3 1-2 2h-1l-1 1-3 1-2 2h-1l-2 2h-1l-2 2h-1l-7 6h-1l-5 5h-1l-13 13v1l-5 5v1l-3 3v1l-4 5v1l-1 1v1l-1 1v1l-1 1v1l-3 5v2l-2 3v2l-1 1v2l-1 1v5l5-5h1l4-4h1l3-3h1l2-2h1l5-4 3-1 5-4 3-1 2-2h1l1-1h1l1-1h1l1-1 3-1 2-2h1l3-2h2l1-1h1l1-1h1l1-1h1l1-1h1l1-1h1l1-1h1l1-1h1l1-1h1l1-1h1l1-1h1l1-1h1l5-3h2l1-1h1l1-1h1l1-1h1l1-1h1l1-1h1l1-1h1l5-3h2l1-1h1l1-1h1l1-1h1l1-1h1l5-3h2l1-1h1l1-1h1l1-1h1l1-1h1l1-1h1l5-3h2l1-1h1l1-1h1l1-1h1l1-1h1l1-1h1l5-3h2l1-1h1l1-1h1l1-1h1l1-1h1l1-1h1l5-3h2l1-1h1l1-1h1l1-1h1l1-1h1l5-3h2l1-1h1l1-1h1l1-1h1l1-1h1l5-3h2l1-1h1l1-1h1l1-1h1l1-1h1l1-1h1l1-1h1l5-3h2l1-1h1l1-1h1l1-1h1l5-3h2l1-1h1l1-1h1l1-1h1l1-1h1l5-3h2l1-1h1l1-1h1l1-1h1l1-1h1l5-3h2l1-1h1l1-1h1l1-1h1l1-1h1l1-1h1l5-3h2l1-1h1l1-1h1l1-1h1l1-1h1l1-1h1l5-3h2l1-1h1l1-1h1l1-1h1l1-1h1l1-1h1l5-3h2l1-1h1l1-1h1l1-1h1l1-1h1l1-1h1l1-1h1l1-1h1l5-3h2l1-1 3-1 1-1v-3l-1-1v-4l-1-1v-4l-1-1v-4l-1-1v-3l-1-1v-4l-1-1v-5l-1-1Zm-707 0v2l-1 1v4l-1 1v3l-1 1v4l-1 1v4l-1 1v4l-1 1v4l-1 1v3l1 1h1l3 2h2l1 1h1l1 1h1l1 1h1l1 1h1l5 3h2l1 1h1l1 1h1l1 1h1l1 1h1l1 1h1l1 1h1l1 1h1l1 1h1l5 3h2l1 1h1l1 1h1l1 1h1l1 1h1l1 1h1l5 3h2l1 1h1l1 1h1l1 1h1l1 1h1l1 1h1l5 3h2l1 1h1l1 1h1l1 1h1l5 3h2l1 1h1l1 1h1l1 1h1l1 1h1l1 1h1l5 3h2l1 1h1l1 1h1l1 1h1l5 3h2l1 1h1l1 1h1l1 1h1l1 1h1l1 1h1l5 3h2l1 1h1l1 1h1l1 1h1l1 1h1l1 1h1l5 3h2l1 1h1l1 1h1l1 1h1l1 1h1l1 1h1l5 3h2l1 1h1l1 1h1l1 1h1l1 1h1l5 3h2l1 1h1l1 1h1l1 1h1l1 1h1l1 1h1l1 1h1l5 3h2l1 1h1l1 1h1l1 1h1l1 1h1l5 3h2l1 1h1l1 1h1l1 1h1l1 1h1l1 1h1l1 1h1l5 3h2l1 1h1l1 1h1l1 1h1l1 1h1l5 3h2l1 1h1l1 1h1l1 1h1l1 1h1l1 1h1l1 1h1l1 1h1l1 1h1l1 1h1l1 1h1l1 1h1l1 1h1l1 1h1l1 1h1l1 1h1l1 1h1l1 1h1l1 1h1l1 1h1l1 1 3 1 2 2 3 1 2 2 3 1 5 4h1l1 1h1l2 2h1l3 3h1l2 2h1l4 4h1l5 5v-6l-1-1v-2l-1-1v-2l-3-5v-2l-1-1-1-3-2-2-1-3-2-2v-1l-2-2v-1l-3-3v-1l-5-5v-1l-14-14h-1l-5-5h-1l-3-3h-1l-2-2h-1l-5-4-3-1-2-2-3-1-2-2-3-1-2-2h-1l-1-1h-1l-1-1h-1l-1-1h-1l-1-1h-1l-1-1h-1l-1-1h-1l-1-1h-1l-1-1h-1l-1-1h-1l-1-1h-1l-5-3h-2l-1-1h-1l-1-1h-1l-1-1h-1l-1-1h-1l-1-1h-1l-1-1h-1l-1-1h-1l-5-3h-2l-1-1h-1l-1-1h-1l-1-1h-1l-1-1h-1l-1-1h-1l-5-3h-2l-1-1h-1l-1-1h-1l-1-1h-1l-1-1h-1l-1-1h-1l-1-1h-1l-1-1h-1l-5-3h-2l-1-1h-1l-1-1h-1l-1-1h-1l-1-1h-1l-1-1h-1l-1-1h-1l-5-3h-2l-1-1h-1l-1-1h-1l-1-1h-1l-1-1h-1l-1-1h-1l-5-3h-2l-1-1h-1l-1-1h-1l-1-1h-1l-1-1h-1l-1-1h-1l-1-1h-1l-5-3h-2l-1-1h-1l-2-2h-1l-3-2h-2l-1-1h-1l-1-1h-1l-1-1h-1l-1-1h-1l-5-3h-2l-1-1h-1l-5-3h-2l-1-1h-1l-2-2h-1l-3-2h-2l-1-1h-1l-1-1h-1l-1-1h-1l-1-1h-1l-1-1h-1l-1-1h-1l-5-3h-2l-1-1h-1l-1-1h-1l-1-1h-1l-1-1h-1l-5-3h-2l-1-1h-1l-1-1h-1l-1-1h-1l-1-1h-1l-5-3h-2l-1-1h-1l-1-1h-1l-1-1h-1l-1-1h-1l-1-1h-1l-5-3h-2l-5-3Zm350-192-1 1h-1l-6 6v1l-4 4v1l-4 4v1l-4 4v1l-3 3h-1l-2 2h-21l-1 1h-3l-5 5v1l-1 1v20l-1 1v2l-5 5h-1l-4 4h-1l-4 4h-1l-7 7v1l-1 1v7l2 2v1l1 1h1l4 4h1l3 3h1l4 4h1l6 6v2l1 1v19l1 1v1l4 4h1l1 1h22l1 1h2l1 1h1l2 2v1l1-1 11 11v1l5 5h1l1 1h2l1 1h5l1-1h2l1-1h1l16-17h1l2-2h1l1-1h7l1-1h17l1-1h1l4-4v-1l1-1v-14l1-1v-7l6-6h1l4-4h1l3-3h1l3-3h1l2-2v-1l2-2v-8l-9-9h-1l-3-3h-1l-6-6h-1l-3-3v-2l-1-1v-21h-1l-1-1v-1l-4-4h-2l-1-1h-23l-1-1v-3l-1 1-7-7v-1l-4-4v-1l-3-3v-1l-7-7h-2l-1-1ZM110 611v2l2-2v-1l7-7h1l5-4h2l1-1h2l1-1h4l1-1h9l1 1h3l1 1h2l1 1h1l5 3h2l1 1h1l1 1h1l1 1h1l1 1h1l5 3h2l1 1h1l1 1h1l1 1h1l1 1h1l1 1h1l1 1h1l1 1h1l5 3h2l1 1h1l1 1h1l1 1h1l1 1h1l1 1h1l5 3h2l1 1h1l1 1h1l1 1h1l1 1h1l1 1h1l1 1h1l5 3h2l1 1h1l1 1h1l1 1h1l1 1h1l1 1h1l1 1h1l5 3h2l1 1h1l1 1h1l1 1h1l1 1h1l1 1h1l1 1h1l5 3h2l1 1h1l1 1h1l1 1h1l1 1h1l1 1h1l5 3h2l1 1h1l1 1h1l1 1h1l1 1h1l1 1h1l1 1h1l1 1h1l5 3h2l1 1h1l1 1h1l1 1h1l5 3h2l1 1h1l1 1h1l1 1h1l1 1h1l1 1h1l1 1h1l5 3h2l1 1h1l1 1h1l1 1h1l1 1h1l5 3h2l1 1h1l1 1h1l1 1h1l1 1h1l1 1h1l5 3h2l1 1h1l1 1h1l1 1h1l1 1h1l5 3h2l1 1h1l1 1h1l1 1h1l1 1h1l1 1h1l5 3h2l1 1h1l1 1h1l1 1h1l5 3h2l1 1h1l1 1h1l1 1h1l1 1h1l1 1h1l5 3h2l1 1h1l1 1h1l1 1h1l1 1h1l5 3h2l1 1h1l1 1h1l1 1h1l1 1h1l1 1h1l5 3h2l1 1h1l1 1h1l1 1h1l5 3h2l1 1h1l1 1h1l1 1h1l1 1h1l5 3h2l1 1h1l1 1h1l1 1h1l1 1h1l5 3h2l1 1h1l1 1h1l1 1h1l1 1h1l5 3h2l1 1h1l1 1h1l1 1h1l1 1h1l1 1h1l1 1h1l1 1h1l1 1h1l1 1h1l1 1 3 1 2 2h1l1 1 3 1 2 2h1l1 1h1l2 2 3 1 2 2h1l2 2h1l2 2h1l2 2h1l3 3h1l3 3h1l4 4h1l6 6h1l30 30v1h1l1-1v-1l29-29h1l6-6h1l4-4h1l7-6h1l2-2h1l2-2h1l5-4 3-1 2-2 3-1 2-2h1l1-1h1l1-1h1l1-1 3-1 2-2h1l1-1h1l1-1h1l1-1h1l1-1h1l1-1h1l5-3h2l1-1h1l1-1h1l1-1h1l1-1h1l5-3h2l1-1h1l1-1h1l1-1h1l1-1h1l5-3h2l1-1h1l1-1h1l1-1h1l1-1h1l1-1h1l5-3h2l1-1h1l1-1h1l1-1h1l5-3h2l1-1h1l1-1h1l1-1h1l1-1h1l5-3h2l1-1h1l1-1h1l1-1h1l1-1h1l5-3h2l1-1h1l1-1h1l1-1h1l1-1h1l1-1h1l5-3h2l1-1h1l1-1h1l5-3h2l1-1h1l1-1h1l1-1h1l1-1h1l1-1h1l1-1h1l5-3h2l1-1h1l1-1h1l1-1h1l1-1h1l1-1h1l1-1h1l5-3h2l1-1h1l1-1h1l1-1h1l1-1h1l5-3h2l1-1h1l1-1h1l1-1h1l1-1h1l1-1h1l5-3h2l1-1h1l1-1h1l1-1h1l1-1h1l5-3h2l1-1h1l1-1h1l1-1h1l1-1h1l1-1h1l5-3h2l1-1h1l1-1h1l1-1h1l1-1h1l1-1h1l1-1h1l5-3h2l1-1h1l1-1h1l1-1h1l1-1h1l1-1h1l5-3h2l1-1h1l1-1h1l1-1h1l1-1h1l1-1h1l5-3h2l1-1h1l1-1h1l1-1h1l1-1h1l1-1h1l1-1h1l5-3h2l1-1h1l1-1h1l1-1h1l1-1h1l1-1h1l1-1h1l5-3h2l1-1h1l1-1h1l1-1h1l1-1h1l1-1h1l1-1h1l5-3h2l1-1h1l1-1h1l1-1h1l1-1h1l1-1h1l1-1h1l5-3h2l1-1h1l1-1h1l1-1h1l1-1h1l1-1h1l1-1h1l5-3h2l5-3h2l1-1h3l1-1h10l1 1h3l1 1h2l1 1h1l1 1 3 1 2 2h1l7 7v1l2 2v1l1 1v-1l-1-1v-2l-1-1v-3l-1-1v-3l-1-1v-3l-1-1v-2l-1-1v-3l-1-1v-2l-1-1v-2l-1-1v-2l-1-1v-3l-1-1v-2l-1-1v-3l-1-1v-2l-1-1v-3l-1-1v-2l-1-1v-2l-1-1v-3l-1-1v-2l-1-1v-3l-1-1v-3l-1-1v-3l-1-1v-2l-1-1v-3l-1-1v-2l-1-1v-2l-1-1v-3l-1-1v-2l-1-1v-2l-1-1v-3l-1-1v-3l-1-1v-2l-1-1v-3l-1-1v-2l-1-1v-2l-1-1v-3l-1-1v-3l-1-1v-2l-1-1v-2l-1-1v-2l-1-1v-3l-1-1v-2l-1-1v-3l-1-1v-2l-1-1v-3l-1-1v-2l-1-1v-3l-1-1v-2l-1-1v-2l-1-1v-3l-1-1v-2l-1-1v-3l-1-1v-3l-1-1v-2l-1-1v-3l-1-1v-2l-1-1v-3l-1-1v-2l-1-1v-3l-1-1v-2l-1-1v-3l-1-1v-2l-1-1v-3l-1-1v-2l-1-1v-2l-1-1v-3l-1-1v-2l-1-1v-3l-1-1v-3l-1-1v-3l-1-1v-2l-1-1v-2l-1-1v-3l-1-1v-2l-1-1v-3l-1-1v-2l-1-1v-2l-1-1v-3l-1-1v-3l-1-1v-2l-1-1v-2l-1-1v-2l-1-1v-3l-1-1v-3l-1-1v-2l-1-1v-2l-1-1v-3l-1-1v-3l-1-1v-3l-2-3v-2l-1-1v-1l-1-1-1-3-6-6h-1l-2-2h-1l-1-1h-2l-1-1h-4l-1-1h-9l-1 1h-4l-1 1h-2l-1 1h-2l-1 1h-2l-1 1h-2l-1 1h-2l-1 1h-2l-3 2h-2l-1 1h-2l-3 2h-2l-1 1h-2l-3 2h-2l-1 1v2l1 1v3l1 1v4l1 1v3l1 1v3l1 1v3l1 1v4l1 1v3l1 1v2h3l3-2h2l1-1h2l3-2h2l1-1h2l1-1h1l2 3v3l1 1v3l1 1v5l1 1v4l1 1v3l1 1v4l1 1v4l1 1v3l1 1v3l1 1v4l1 1v4l1 1v3l1 1v4l1 1v4l1 1v3l1 1v4l1 1v4l1 1v4l1 1v3l1 1v4l1 1v4l1 1v3l1 1v3l1 1v4l1 1v4l1 1v3l1 1v4l1 1v4l1 1v4l1 1v4l1 1v3l1 1v4l1 1v3l1 1v4l1 1v4l1 1v3l1 1v4l1 1v4l1 1v3l1 1v4l1 1v3l1 1v4l1 1v3l1 1v4l1 1v4l1 1v4l1 1v3l1 1v3l1 1v4l1 1v4l1 1v3l1 1v4l1 1v5l-1 1v3l-1 1v1l-7 7h-1l-1 1h-1l-5 3h-2l-1 1h-1l-1 1h-1l-1 1h-1l-1 1h-1l-1 1h-1l-1 1h-1l-1 1h-1l-1 1h-1l-1 1h-1l-1 1h-1l-1 1h-1l-1 1h-1l-1 1h-1l-1 1h-1l-5 3h-2l-1 1h-1l-1 1h-1l-1 1h-1l-1 1h-1l-1 1h-1l-1 1h-1l-1 1h-1l-1 1h-1l-1 1h-1l-1 1h-1l-1 1h-1l-1 1h-1l-5 3h-2l-1 1h-1l-1 1h-1l-1 1h-1l-1 1h-1l-1 1h-1l-1 1h-1l-1 1h-1l-1 1h-1l-1 1h-1l-1 1h-1l-1 1h-1l-5 3h-2l-1 1h-1l-1 1h-1l-1 1h-1l-1 1h-1l-1 1h-1l-1 1h-1l-1 1h-1l-1 1h-1l-1 1h-1l-1 1h-1l-1 1h-1l-1 1h-1l-1 1h-1l-1 1h-1l-5 3h-2l-10 6h-2l-1 1h-1l-1 1h-1l-1 1h-1l-1 1h-1l-1 1h-1l-1 1h-1l-1 1h-1l-1 1h-1l-1 1h-1l-5 3h-2l-1 1h-1l-1 1h-1l-1 1h-1l-1 1h-1l-1 1h-1l-1 1h-1l-1 1h-1l-1 1h-1l-1 1h-1l-1 1h-1l-1 1h-1l-5 3h-2l-1 1h-1l-1 1h-1l-1 1h-1l-1 1h-1l-1 1h-1l-1 1h-1l-1 1h-1l-1 1h-1l-1 1h-1l-1 1h-1l-1 1h-1l-5 3h-2l-1 1h-1l-1 1h-1l-1 1h-1l-1 1h-1l-1 1h-1l-1 1h-1l-1 1h-1l-1 1h-1l-1 1h-1l-1 1h-1l-5 3h-2l-1 1h-1l-1 1h-1l-1 1h-1l-1 1h-1l-1 1h-1l-1 1h-1l-1 1h-1l-1 1h-1l-1 1h-1l-5 3h-2l-1 1h-1l-1 1h-1l-1 1h-1l-1 1h-1l-1 1h-1l-1 1h-1l-1 1h-1l-1 1h-1l-5 3h-2l-1 1h-1l-1 1h-1l-1 1h-1l-1 1h-1l-1 1h-1l-1 1h-1l-1 1h-1l-1 1h-1l-1 1h-1l-1 1h-1l-1 1h-1l-1 1h-1l-1 1-3 1-2 2h-2l-2 2h-1l-1 1h-1l-2 2h-1l-1 1-3 1-2 2h-1l-2 2h-1l-2 2h-1l-2 2h-1l-2 2h-1l-2 2h-1l-2 2h-1l-3 3h-1l-3 3h-1l-3 3h-1l-3 3h-1l-8 8h-1l-25 25h-1l-13-13v-1l-3-3h-1l-8-8h-1l-7-7h-1l-3-3h-1l-3-3h-1l-4-4h-1l-3-3h-1l-2-2h-1l-2-2h-1l-2-2h-1l-2-2h-1l-5-4h-1l-1-1h-1l-2-2h-1l-1-1-3-1-2-2h-1l-1-1h-1l-1-1h-1l-1-1h-1l-1-1h-1l-1-1-3-1-2-2h-1l-1-1h-1l-1-1h-1l-1-1h-1l-1-1h-1l-1-1h-1l-1-1h-1l-5-3h-2l-1-1h-1l-1-1h-1l-1-1h-1l-1-1h-1l-1-1h-1l-1-1h-1l-1-1h-1l-1-1h-1l-5-3h-2l-1-1h-1l-1-1h-1l-1-1h-1l-1-1h-1l-1-1h-1l-1-1h-1l-5-3h-2l-2-2h-2l-1-1h-1l-1-1h-1l-1-1h-1l-1-1h-1l-1-1h-1l-1-1h-1l-1-1h-1l-1-1h-1l-1-1h-1l-1-1h-1l-5-3h-2l-1-1h-1l-1-1h-1l-1-1h-1l-1-1h-1l-1-1h-1l-1-1h-1l-1-1h-1l-1-1h-1l-1-1h-1l-1-1h-1l-1-1h-1l-1-1h-1l-5-3h-2l-1-1h-1l-1-1h-1l-1-1h-1l-1-1h-1l-1-1h-1l-1-1h-1l-1-1h-1l-5-3h-2l-1-1h-1l-2-2h-2l-1-1h-1l-1-1h-1l-1-1h-1l-1-1h-1l-1-1h-1l-1-1h-1l-1-1h-1l-1-1h-1l-1-1h-1l-1-1h-1l-1-1h-1l-1-1h-1l-1-1h-1l-1-1h-1l-5-3h-2l-1-1h-1l-1-1h-1l-1-1h-1l-1-1h-1l-1-1h-1l-1-1h-1l-1-1h-1l-1-1h-1l-1-1h-1l-1-1h-1l-1-1h-1l-1-1h-1l-1-1h-1l-1-1h-1l-1-1h-1l-1-1h-1l-5-3h-2l-1-1h-1l-1-1h-1l-1-1h-1l-1-1h-1l-1-1h-1l-1-1h-1l-1-1h-1l-1-1h-1l-1-1h-1l-1-1h-1l-1-1h-1l-1-1h-1l-1-1h-1l-1-1h-1l-1-1h-1l-1-1h-1l-5-3h-2l-1-1h-1l-1-1h-1l-1-1h-1l-1-1h-1l-1-1h-1l-1-1h-1l-1-1h-1l-1-1h-1l-1-1h-1l-1-1h-1l-1-1h-1l-1-1h-1l-5-3h-2l-1-1h-1l-1-1h-1l-1-1h-1l-1-1h-1l-1-1h-1l-1-1h-1l-1-1h-1l-1-1h-1l-1-1h-1l-1-1h-1l-1-1h-1l-5-3h-2l-1-1h-1l-1-1-3-1-7-7v-1l-1-1v-3l-1-1v-5l1-1v-3l1-1v-4l1-1v-4l1-1v-4l1-1v-3l1-1v-3l1-1v-4l1-1v-4l1-1v-3l1-1v-4l1-1v-3l1-1v-4l1-1v-4l1-1v-3l1-1v-4l1-1v-4l1-1v-3l1-1v-4l1-1v-3l1-1v-4l1-1v-4l1-1v-4l1-1v-3l1-1v-4l1-1v-4l1-1v-3l1-1v-4l1-1v-4l1-1v-3l1-1v-4l1-1v-3l1-1v-5l1-1v-4l1-1v-3l1-1v-4l1-1v-4l1-1v-3l1-1v-4l1-1v-3l1-1v-4l1-1v-4l1-1v-4l1-1v-3l1-1v-3l1-1v-4l1-1v-3l1-1v-4l1-1v-3l1-1v-4l1-1v-4l1-1v-4l1-1v-3l2-3h2l3 2h2l1 1h2l1 1h1l1 1h2l3 2h3v-2l1-1v-3l1-1v-3l1-1v-3l1-1v-4l1-1v-3l1-1v-3l1-1v-4l1-1v-2l-1-1h-2l-3-2h-2l-1-1h-2l-1-1h-2l-1-1h-2l-3-2h-2l-3-2h-2l-1-1h-2l-1-1h-2l-1-1h-2l-1-1h-3l-1-1h-5l-1-1h-8l-1 1h-3l-1 1h-1l-1 1-3 1-2 2h-1l-4 4v1l-2 2v1l-1 1v2l-2 3v2l-1 1v2l-1 1v3l-1 1v3l-1 1v2l-1 1v3l-1 1v3l-1 1v2l-1 1v3l-1 1v2l-1 1v3l-1 1v2l-1 1v2l-1 1v2l-1 1v3l-1 1v3l-1 1v2l-1 1v3l-1 1v2l-1 1v2l-1 1v3l-1 1v2l-1 1v3l-1 1v3l-1 1v2l-1 1v3l-1 1v3l-1 1v2l-1 1v2l-1 1v2l-1 1v3l-1 1v2l-1 1v3l-1 1v2l-1 1v3l-1 1v2l-1 1v3l-1 1v2l-1 1v3l-1 1v3l-1 1v2l-1 1v2l-1 1v3l-1 1v2l-1 1v3l-1 1v2l-1 1v3l-1 1v2l-1 1v2l-1 1v3l-1 1v2l-1 1v2l-1 1v3l-1 1v3l-1 1v3l-1 1v2l-1 1v2l-1 1v3l-1 1v2l-1 1v3l-1 1v2l-1 1v3l-1 1v2l-1 1v3l-1 1v2l-1 1v3l-1 1v2l-1 1v2l-1 1v3l-1 1v2l-1 1v3l-1 1v3l-1 1v2l-1 1v2l-1 1v3l-1 1v2l-1 1v3l-1 1v2l-1 1v3l-1 1v2l-1 1v2l-1 1v2l-1 1v3l-1 1v2l-1 1v3l-1 1v3l-1 1v3l-1 1v2Z" clip-rule="evenodd"/></svg>
