<svg xmlns="http://www.w3.org/2000/svg" viewBox="0 0 770 770"><path fill="#f7f3ec" d="M0 0h770v770H0z"/><path fill="#1b3a2d" fill-rule="evenodd" d="M361 46.016c-106.933 9.821-192.394 56.505-254.422 138.977C62.47 243.639 41.219 304.275 38.058 380.5c-.905 21.83-.939 22.07-4.447 31.097-1.944 5.003-3.951 11.753-4.459 15-.846 5.402-1.337 6.242-5.788 9.903C6.521 450.352 6.575 450.181 6.16 490.601c-.19 18.486.105 36.787.669 41.447l1.009 8.346 9.973 9.807c10.784 10.605 13.577 15.138 15.783 25.615C37.187 592.886 47.943 599.5 72 599.432c18.844-.052 27.555-3.98 30.496-13.751 3.169-10.532 2.857-136.005-.428-171.984-1.265-13.852-3.861-16.237-21.472-19.731l-5.903-1.172.603-18.147c3.321-99.833 56.925-189.267 147.698-246.422C323.698 64.817 457.581 66.888 557 133.391c64.211 42.952 109.867 105.978 129.02 178.109 5.457 20.551 10.98 59.157 10.98 76.752v4.505l-7.625 1.134c-12.251 1.822-17.839 5.61-20.488 13.89-1.51 4.718-2.434 139.209-1.118 162.719 1.292 23.089 4.032 26.992 19.835 28.26 4.785.385 6.721.978 7.414 2.273 1.915 3.58 3.23 21.471 2.708 36.859-1.226 36.157-10.534 48.914-38.403 52.632-25.793 3.441-82.683 2.654-84.823-1.174-7.54-13.49-32.804-16.99-47.813-6.624-11.19 7.728-12.146 24.804-1.863 33.281 9.049 7.459 29.637 9.175 41.566 3.465 1.71-.818 4.585-3.622 6.388-6.23l3.278-4.742 37.222-.061c56.141-.093 70.625-3.115 84.299-17.593 11.645-12.329 15.463-27.493 16.317-64.81l.606-26.464 2.5-1.258c1.375-.692 4.525-2.096 7-3.12 5.916-2.448 9.612-7.877 12.164-17.867 2.788-10.92 5.928-16.131 15.109-25.074 11.503-11.205 11.466-11.163 12.151-14.083.345-1.468.905-17.999 1.243-36.735.843-46.618-.162-50.893-14.817-63.015l-7.35-6.079-.641-7.817c-.536-6.533-1.332-9.136-4.851-15.858l-4.21-8.042-.857-23.062c-1.366-36.773-6.54-66.249-17.315-98.639C675.452 161.161 575.263 73.342 454.103 50.565c-23.708-4.457-69.66-6.702-93.103-4.549m16.265 64.717c-16.95 21.488-35.21 34.844-67.765 49.566-53.502 24.195-73.805 42.796-82.007 75.132-1.371 5.404-2.493 11.343-2.493 13.197V252h-31v75.915l7.25 2.166c18.146 5.421 22.402 6.535 23.536 6.157.912-.304 1.214-7.096 1.214-27.295v-26.89l14.748-.276 14.747-.277-.497-4c-.274-2.2-.421-8.277-.327-13.503.587-32.64 17.942-54.33 58.829-73.524 33.831-15.881 51.164-25.621 64-35.964 6.408-5.163 7.543-5.175 13.143-.14 10.749 9.664 27.144 18.93 63.857 36.091 32.485 15.184 49.555 31.612 56.672 54.54 2.011 6.477 2.319 9.508 2.264 22.224l-.064 14.725 14.421.275 14.422.276.02 26.77c.011 14.723.312 26.95.67 27.171.357.221 7.05-1.44 14.872-3.69L572 328.659V252h-27.819l-1.212-7.25c-5.994-35.858-25.254-56.797-73.969-80.413-49.764-24.125-58.09-29.879-74.848-51.725-4.209-5.487-8.164-10.139-8.789-10.339-.626-.201-4.27 3.607-8.098 8.46m-24.148 88.326C336.602 205.377 333 207.241 333 209.466c0 1.078 1.623.718 6.75-1.499 3.712-1.605 12.055-5.067 18.538-7.693 10.415-4.218 13.734-6.297 11.037-6.912-.454-.104-7.747 2.46-16.208 5.697m35.383-1.365c-23.205 5.358-65.23 21.391-71.201 27.165-2.138 2.067-4.282 7.783-4.293 11.446-.003.993-1.741 4.368-3.861 7.5-6.316 9.329-7.346 11.911-7.005 17.56.247 4.09-.295 6.356-2.665 11.135-5.641 11.377-3.898 23.116 4.068 27.399l2.979 1.601-2.231 5.5c-6.463 15.941 1.846 30.194 14.175 24.315 1.944-.927 3.534-2.052 3.534-2.5s.563-.815 1.25-.816c.838-.001 1.22 1.566 1.159 4.75q-.462 24.09 23.757 21.865c3.666-.337 7.321-.864 8.121-1.171 1.14-.437 1.559.683 1.93 5.16.426 5.141.89 6.107 4.59 9.558 7.408 6.91 12.621 4.915 24.722-9.461 7.49-8.899 10.814-11.122 26.382-17.643l12.412-5.2 3.655 4.245c7.395 8.586 20.383 5.908 24.741-5.102 2.481-6.269 2.059-23.99-1.548-65-1.572-17.875-2.715-32.677-2.539-32.893.176-.215 1.006.177 1.844.873 2.496 2.072 1.921-2.014-1.549-11.012-3.311-8.588-4.013-9.27-5.707-5.551-1.218 2.673-1.073 5.138 3.793 64.531 3.924 47.881 3.928 47.378-.414 49.438-8.684 4.121-19.571-.482-13.702-5.793 6.763-6.12 3.833-24.593-3.901-24.593-5.114 0-7.496 4.833-7.496 15.211v8.711l-3.5 1.484c-24.084 10.212-26.001 11.451-38.277 24.758-7.757 8.407-8.66 9.075-12.93 9.556-5.346.602-7.235-1.267-8.31-8.22l-.619-4 9.358-4.724c19.452-9.821 24.162-17.851 18.779-32.015-2.388-6.281-2.342-5.761-.501-5.761 2.088 0 1.967-.346-2.124-6.04-7.088-9.866-8.469-2.756-2.446 12.598 2.238 5.707 4.07 10.838 4.07 11.403 0 2.517-23.996 16.376-25.591 14.781-.367-.367.927-4.024 2.876-8.127 3.475-7.317 3.506-7.494 1.625-9.196-1.872-1.694-1.812-1.841 2.486-6.078 2.422-2.387 4.951-4.341 5.62-4.341.774 0 .998-.819.614-2.25-.331-1.238-.609-3.488-.616-5-.011-2.093-.499-2.75-2.046-2.75-2.884 0-4.179 3.861-2.292 6.835 1.764 2.78.778 4.193-6.805 9.759-5.961 4.376-6.657 6.167-3.463 8.911l2.486 2.137-1.822 5.929-1.822 5.929-7.146 1.452c-11.603 2.358-18.456-.249-22.223-8.452-5.81-12.651.716-20.302 23.818-27.925 19.363-6.389 22.919-15.014 12.814-31.075l-1.888-3 3.922 3.5c2.157 1.925 8.204 7.565 13.438 12.534 5.233 4.969 11.139 9.797 13.123 10.73 4.241 1.993 4.869 4.908 4.883 22.686.006 6.301.37 10.073.918 9.5 2.133-2.228 4.091-12.283 4.091-21.004v-9.19l3.892-.623c5.454-.872 9.586-5.808 11.152-13.323 1.324-6.355.973-15.44-1.539-39.81-2.148-20.835-3.449-33.852-3.479-34.817-.014-.45.835-.544 1.888-.21 2.093.664 1.882-.434-2.434-12.723-1.88-5.353-2.604-5.754-4.384-2.43-.969 1.812-1.003 5.156-.153 15.25 2.082 24.726 3.068 34.974 4.076 42.374.558 4.094 1.298 13.347 1.644 20.562l.629 13.119-2.781 2.188c-3.044 2.394-9.497 3.029-9.532.937-.012-.687-.903-10.475-1.979-21.75-2.434-25.492-2.415-24.589-.476-22.98 2.726 2.263 2.591.404-.63-8.634-3.821-10.723-4.158-11.158-6.208-8.029-1.372 2.093-1.473 3.779-.677 11.301 1.371 12.966 3.991 43.576 3.991 46.635v2.64l-3.321-1.96c-1.826-1.077-7.564-5.822-12.75-10.544-5.186-4.721-11.579-10.226-14.207-12.234-3.993-3.049-4.486-3.765-3-4.352 3.474-1.373 8.86-.762 14.778 1.676 3.3 1.36 6.113 2.474 6.25 2.476.137.003.25-1.781.25-3.963 0-3.639-.445-4.298-5.364-7.931-5.781-4.271-7.915-8.109-9.173-16.497-.7-4.668-.652-4.799 1.515-4.111 2.09.663 1.988.235-1.552-6.502-3.427-6.521-3.917-7.04-5.108-5.411-.725.991-1.318 2.99-1.318 4.442 0 3.177 3.603 23.526 4.391 24.802.307.496-2.244 1.622-5.667 2.502s-7.163 1.875-8.31 2.211c-1.388.406-3.059-.19-5-1.786-1.603-1.317-7.364-5.434-12.804-9.147-15.735-10.742-18.581-13.008-18.338-14.604.739-4.859 54.222-25.877 70.115-27.554 9.62-1.016 9.894 2.269 1.047 12.554-5.426 6.308-10.268 14.062-8.704 13.94 1.133-.089 16.288-18.984 18.432-22.982 4.654-8.677-.103-13.702-10.662-11.264m39.058 10.194c-1.219 2.356-1.32 4.428-.553 11.25.518 4.599 1.632 15.952 2.477 25.228l1.536 16.866-4.552 4.007c-5.495 4.837-5.173 6.281.413 1.857 4.835-3.83 4.894-3.745 5.738 8.259.373 5.305.99 9.645 1.37 9.645 1.359 0 3.127-13.66 2.439-18.844-.757-5.713.702-8.478 5.426-10.285 1.572-.601 2.152-1.419 1.75-2.467-.331-.862-.602-2.849-.602-4.414 0-3.628-2.653-6.523-4.542-4.955-1.974 1.638-2.936 7.052-1.419 7.989.689.426.976 1.495.638 2.375-1.417 3.694-2.422 1.015-3.056-8.149-.371-5.363-.957-12.84-1.302-16.616-.62-6.786-.601-6.858 1.625-6.152 2.671.848 2.543.18-2.149-11.232-3.418-8.311-3.262-8.181-5.237-4.362m-51.632 7.806c-1.621 4.265-.81 8.806 1.574 8.806 1.311 0 2.11-.773 2.319-2.245.251-1.771-.045-2.105-1.404-1.584-1.52.583-1.645.17-1.058-3.505.76-4.748.08-5.447-1.431-1.472m22.599 3.279c-1.232 1.361-1.607 2.867-1.21 4.854.32 1.597.073 3.385-.553 4.01-1.636 1.637-.095 2.684 1.726 1.173.845-.701 2.966-2.003 4.714-2.892 4.103-2.088 5.039-4.468 1.398-3.554-3.106.78-5.985-.131-5.074-1.605.454-.736 1.053-.723 1.974.041 1.61 1.336 2.769-.136 1.896-2.41-.825-2.15-2.714-2.001-4.871.383m-49.548 5.069c-1.557 2.911-.859 9.458 1.009 9.458.818 0 1.649-.841 1.846-1.868.242-1.257-.035-1.624-.847-1.123-.894.553-1.111-.454-.839-3.881.418-5.249.344-5.412-1.169-2.586m-15.879 8.107c-1.897 5.442-.588 9.333 2.326 6.914 2.114-1.755 2.067-4.189-.066-3.37-1.406.539-1.543.106-.954-3.032.843-4.493.173-4.756-1.306-.512m87.532 1.101c-1.204 4.493-.718 9.75.901 9.75 2.219 0 3.1-3.068 1.189-4.137-1.173-.656-1.442-1.804-1.024-4.376.629-3.877-.124-4.751-1.066-1.237m-276.152 4.95c-.274.715-.381 24.925-.238 53.8l.26 52.5h12v-107l-5.762-.3c-4.033-.21-5.912.09-6.26 1m209.557.734c-.569 1.064-1.049 2.977-1.067 4.25-.031 2.274-.057 2.28-1.454.316-3.915-5.506-6.514-6.47-6.514-2.416 0 1.141.983 2.339 2.344 2.857 1.289.49 2.916 2.273 3.616 3.962 1.567 3.783 3.04 3.115 3.04-1.38 0-4.526.875-6.508 2.583-5.853q1.418.546 1.417-1.563c0-2.649-2.579-2.761-3.965-.173m106.24 2.361c-.721 1.583-.781 5.091-.184 10.776 2.235 21.29 3.972 42.659 4.571 56.222.709 16.064 1.28 16.985 3.731 6.01 2.058-9.219 2.007-13.768-.406-36.303-2.568-23.975-2.568-23.836.013-21.5 2.638 2.388 2.508 1.537-1.289-8.428-3.457-9.074-4.763-10.449-6.436-6.777m-149.536 3.346c-4.03 6.416-4.739 8.097-4.739 11.234 0 3.511 1.48 4.801 3.544 3.089 1.21-1.004 1.456-.78 1.456 1.329 0 1.664-1.381 3.847-4.008 6.336-7.222 6.844-10.465 20.898-5.879 25.484 4.438 4.438 9.094 2.155 26.013-12.757 5.706-5.03 11.64-10.206 13.187-11.503 3.919-3.285 3.273-4.167-10.094-13.78-6.446-4.635-12.92-9.521-14.388-10.859l-2.668-2.432zm76.437-1.417c-.647.647-1.176 2.436-1.176 3.976q-.002 5.416-3.203-.206c-2.109-3.705-4.797-3.982-4.797-.494 0 1.823.535 2.5 1.976 2.5 1.272 0 2.668 1.337 3.918 3.75l1.942 3.75.711-5.25c.57-4.21 1.081-5.25 2.582-5.25 2.184 0 2.432-1.29.547-2.854-.966-.802-1.641-.781-2.5.078M438 249c0 .55.45 1 1 1s1-.45 1-1-.45-1-1-1-1 .45-1 1m-116.443 9.223c-2.002 2.857-1.974 5.217.083 7.275 1.521 1.52 1.321 1.966-2.733 6.097-2.406 2.451-6.077 5.637-8.159 7.079-2.081 1.443-3.593 2.814-3.359 3.048.909.909 6.749-2.955 12.465-8.247 3.782-3.502 6.241-5.13 6.679-4.422 1.421 2.3 2.486-.699 1.378-3.879-.613-1.759-.859-3.868-.545-4.687 1.639-4.27-3.108-6.121-5.809-2.264m84.521 1.433c-2.003 7.214-1.184 12.507 1.58 10.213 1.746-1.449 1.728-3.869-.029-3.869-1.09 0-1.192-.956-.499-4.666 1.079-5.778.392-6.875-1.052-1.678M323 261c0 .55.45 1 1 1s1-.45 1-1-.45-1-1-1-1 .45-1 1m-156.29 4.623c-.39.391-.71 12.962-.71 27.937 0 30.248-.442 28.44 6.959 28.44 6.11 0 6.102.041 5.808-29.622L178.5 265.5l-5.54-.294c-3.047-.161-5.859.026-6.25.417m178.564 7.352c-1.775 1.081-8.75 7.156-15.5 13.498-7.206 6.77-13.967 12.233-16.375 13.23-8.633 3.575-12.1 21.17-5.079 25.771 3.517 2.305 6.704.72 15.622-7.771 8.077-7.689 14.091-11.12 26.743-15.256 20.84-6.813 21.686-8.983 8.734-22.418-9.546-9.902-9.507-9.883-14.145-7.054m42.356.275c-1.738 6.486.257 11.993 2.99 8.255 1.433-1.959.882-3.933-.807-2.89-.688.426-.913-.77-.654-3.483.422-4.422-.533-5.597-1.529-1.882m53.921-1.333c-.311.504-.841 2.92-1.177 5.368-.64 4.67.256 6.178 3.036 5.111 2.084-.8 2.055-3.396-.038-3.396-1.339 0-1.514-.71-.988-4 .621-3.883.329-4.963-.833-3.083m30.079 3.333c-1.903 7.102.673 15.04 3.456 10.646 1.538-2.43 1.099-4.904-.745-4.197-1.451.557-1.579.051-1.019-4.031.65-4.746-.592-6.522-1.692-2.418m-63.88 9.912c-1.512.553-2.75 1.465-2.75 2.028 0 .583.754.714 1.75.304a41 41 0 0 1 3.5-1.224c.962-.277 1.75-.901 1.75-1.387 0-1.07-.679-1.025-4.25.279m-69.35 3.032c-1.633 3.156-1.618 3.22 1.224 5.495 3.549 2.84 4.991 2.9 6.4.266l1.094-2.045 3.582 2.213c3.467 2.143 3.624 2.155 4.94.354 2.047-2.799 1.65-5.104-1.275-7.404-3.219-2.532-4.957-2.622-6.248-.323-.936 1.667-1.124 1.667-3.954 0-3.866-2.277-3.835-2.285-5.763 1.444m-214.951.079c-.269.7-.367 11.387-.219 23.75l.27 22.477 5.331.305c8.348.478 8.169.983 8.169-22.993 0-12.525-.416-21.721-1.035-22.878-1.248-2.331-11.664-2.881-12.516-.661m301.102 1.628c-2.137 4.133-2.024 4.53 1.899 6.642 3.251 1.751 3.558 1.76 5.329.157 2.388-2.161 2.852-2.135 5.993.335 2.959 2.328 4.619 1.415 5.738-3.156.549-2.24.119-2.945-2.95-4.842l-3.592-2.22-1.834 2.266-1.834 2.265-3.599-2.224-3.598-2.224zm-94.339 7.287c-.666.666-1.212 2.247-1.212 3.512 0 2.973-.578 2.898-3.478-.45-1.719-1.983-2.69-2.448-3.485-1.667-1.401 1.375-.284 4.417 1.621 4.417.794 0 2.156 1.688 3.027 3.75 1.792 4.246 3.108 2.827 3.245-3.5.056-2.599.485-3.25 2.143-3.25 1.398 0 1.968-.543 1.75-1.667-.418-2.157-2.074-2.682-3.611-1.145m-17.114 11.961c-2.191 6.285-.627 10.808 2.616 7.565 1.614-1.613.872-4.194-.892-3.104-.697.431-.81-.72-.343-3.483.828-4.902.153-5.379-1.381-.978m96.9 5.353c-.715.862-1.004 2.72-.677 4.355.314 1.568.063 3.359-.559 3.98-1.636 1.637-.095 2.684 1.726 1.173.845-.701 2.951-2.003 4.681-2.892 4.065-2.091 3.737-3.646-.688-3.265-2.082.18-3.481-.15-3.481-.82 0-.616.771-.988 1.714-.827.986.169 1.866-.449 2.073-1.456.455-2.214-3.008-2.393-4.789-.248m17.205-.246c-2.922 3.52-1.516 11.744 2.008 11.744 1.99 0 6.789-4.193 6.789-5.933 0-4.63-6.315-8.802-8.797-5.811m-79.999 5.206c-9.655 4.863-16.227 9.538-13.408 9.538 3.602 0 25.204-12.132 25.204-14.155 0-1.256-.604-1.02-11.796 4.617m96.894-1.313c-2.238 6.42-.821 11.526 2.446 8.815 1.93-1.602 1.847-2.964-.18-2.964-1.364 0-1.533-.749-1.019-4.5.723-5.276.286-5.75-1.247-1.351m-71.083 3.823c-1.586 2.963-.495 7.028 1.887 7.028 2.633 0 3.183-3.322 1.08-6.527l-1.781-2.716zm.985 4.087c0 .582.45.781 1 .441s1-.816 1-1.059-.45-.441-1-.441-1 .477-1 1.059m-25.407 4.111c-.876 1.251-1.607 3.187-1.623 4.303-.031 2.02-.035 2.02-1.125.027-2.464-4.505-5.845-5.338-5.845-1.441 0 1.253.686 1.941 1.935 1.941 1.304 0 2.348 1.142 3.201 3.5 1.727 4.776 2.553 4.399 3.369-1.536.61-4.433.93-4.961 2.676-4.407 1.629.517 1.923.226 1.651-1.635-.459-3.132-2.338-3.466-4.239-.752m-30.558 5.764c-2.219 4.148-.435 9.473 2.389 7.129 2.035-1.688 2.013-3.063-.049-3.063-1.272 0-1.495-.651-1.025-3 .689-3.446.18-3.859-1.315-1.066m-152.069 1.608c-2.034 2.451-1.764 245.089.275 247.127.695.695 8.237 3.691 16.761 6.658 76.175 26.514 117.532 48.623 182.605 97.615 9.811 7.387 13.333 9.303 13.429 7.308.02-.413.095-60.6.166-133.75.147-150.6 1.001-136.129-8.475-143.625-48.132-38.072-107.733-64.5-177.788-78.834-20.97-4.291-25.165-4.679-26.973-2.499m419.698.524c-70.399 13.334-141.472 44.139-184.39 79.918-12.031 10.029-10.773-6.777-10.784 144.016-.006 72.325.348 132.288.785 133.25 1.28 2.817 2.13 2.356 19.747-10.708 61.929-45.927 106.355-69.009 184.243-95.724 4.853-1.665 9.177-3.776 9.688-4.73 1.659-3.1 1.59-241.181-.072-244.662-1.771-3.712-5.433-3.971-19.217-1.36m-155.653 11.393c-1.385 4.949-.711 9.541 1.401 9.541 1.294 0 2.588-2.041 2.588-4.082 0-.505-.666-.918-1.481-.918-1.18 0-1.355-.915-.864-4.5.79-5.76-.037-5.78-1.644-.041m-12.454 2.764c-.856 1.222-1.559 3.359-1.561 4.75-.003 2.443-.07 2.417-2.026-.791-1.277-2.093-2.66-3.196-3.747-2.986-2.472.476-2.127 4.127.499 5.279 1.222.536 2.739 2.224 3.371 3.75 1.669 4.029 2.508 3.443 3.548-2.475.636-3.621 1.35-5.156 2.299-4.947 1.905.419 3.175-1.959 1.88-3.519-1.509-1.819-2.482-1.605-4.263.939M123 355.817l-3.5.683.253 127.963.253 127.963 41.247 16.631c22.686 9.146 47.547 19.23 55.247 22.407s17.615 7.248 22.034 9.047c11.611 4.725 55.537 23.659 72.415 31.213 15.563 6.965 21.751 9.812 38.051 17.507C370.352 719.311 384.899 726 385.467 726c.322 0 11.26-5.009 24.309-11.131 23.514-11.033 49.846-23.105 66.224-30.361a5668 5668 0 0 0 13-5.778c4.878-2.182 12.626-5.44 29-12.194 5.775-2.383 19.95-8.245 31.5-13.029 11.55-4.783 25.95-10.654 32-13.046s18.875-7.564 28.5-11.494 22-8.92 27.5-11.089c5.5-2.168 10.675-4.739 11.5-5.713 1.316-1.553 1.5-17.329 1.5-128.718V356.5h-25l-.5 118.862-.5 118.862-36.292 14.344c-106.999 42.292-157.886 66.989-194.036 94.17-9.524 7.162-9.099 7.033-12.845 3.893-4.874-4.085-29.283-19.999-42.327-27.596-23.423-13.643-63.353-32.695-100.5-47.953-8.25-3.388-17.475-7.232-20.5-8.542s-14.95-6.044-26.5-10.522c-35.661-13.824-43.955-17.166-45.25-18.233-.987-.813-1.25-25.697-1.25-118.285 0-98.431-.221-117.439-1.379-118.4-1.652-1.371-15.692-2.245-20.621-1.283m226.161 3.73c-2.253 4.943-.742 9.01 2.383 6.417 1.873-1.555 1.864-2.964-.019-2.964-1.106 0-1.325-.751-.875-3 .734-3.67.069-3.873-1.489-.453m48.161 4.203c-.338.962-1.758 2.988-3.156 4.5-1.646 1.782-2.054 2.75-1.158 2.75 2.041 0 6.992-5.09 6.992-7.187 0-2.316-1.87-2.36-2.678-.063M188.015 464.108c.009 55.765.36 101.933.78 102.594s5.926 2.972 12.234 5.135c53.214 18.244 91.707 37.71 142.187 71.904 5.894 3.993 11.181 7.259 11.75 7.259.706 0 1.034-34.437 1.034-108.449v-108.45l-6.494-4.634c-20.475-14.61-56.654-34.652-79.297-43.925-24.679-10.108-60.696-20.578-76.459-22.226l-5.75-.601zm373.282-97.636c-34.37 8.723-71.684 23.502-104.136 41.247-11.85 6.479-18.688 10.616-37.911 22.937L414 434.02v107.931c0 77.038.313 108.124 1.094 108.607.601.372 4.9-1.964 9.553-5.191 43.608-30.244 91.53-54.592 142.822-72.564 7.684-2.692 14.32-5.437 14.749-6.099.884-1.367.979-194.181.098-199.954-.739-4.847-2.902-4.876-21.019-.278M212 395.717c0 8.033.18 8.155 23.09 15.672 36.251 11.895 63.806 24.886 88.91 41.916 4.125 2.799 9.016 6.118 10.869 7.377 4.487 3.05 5.131 2.375 5.131-5.373 0-9.275-1.717-11.571-14.192-18.975-32.489-19.284-87.716-42.427-109.558-45.912l-4.25-.678zm332-2.586c-47.325 16.922-53.563 19.517-83.268 34.637-24.646 12.545-28.124 15.168-29.67 22.38-1.172 5.462-.524 11.852 1.202 11.852.573 0 5.81-3.069 11.639-6.821 27.574-17.748 55.746-31.034 97.034-45.76 16.156-5.763 17.271-6.669 16.864-13.72-.38-6.573-1.842-6.845-13.801-2.568m-332 39.258c0 8.019.948 8.707 22 15.97 36.9 12.731 61.95 24.381 89.406 41.582 15.903 9.963 16.098 10.041 16.964 6.809 2.763-10.31.141-13.838-17.87-24.042-35.417-20.066-51.156-27.129-89.827-40.312-20.457-6.974-20.673-6.975-20.673-.007m323 1.546c-45.722 16.722-73.868 29.889-99.229 46.422-6.032 3.933-8.042 9.298-6.141 16.393.873 3.257 1.35 3.077 16.279-6.147 27.341-16.893 51.815-28.158 94.591-43.537 15.328-5.511 17.5-7.136 17.5-13.095 0-8.661.578-8.66-23-.036M212.032 469.75c.017 3.163.585 6.477 1.262 7.366s9.825 4.603 20.328 8.253c30.856 10.722 59.134 24.447 88.711 43.057 7.058 4.441 13.932 8.749 15.275 9.574 3.471 2.132 4.619.048 4.032-7.324-.569-7.145-1.481-8.219-13.053-15.378-31.313-19.369-74.996-39.65-105.942-49.186-10.457-3.222-10.651-3.156-10.613 3.638m326.968-.3c-34.644 12.583-71.441 29.714-94.644 44.061-14.498 8.965-15.356 9.97-15.356 17.986 0 7.952.454 8.216 7.107 4.144 2.966-1.815 9.443-5.79 14.393-8.834 27.064-16.64 47.204-26.225 85-40.452 11-4.141 20.563-8.251 21.25-9.133 2.447-3.14 1.198-13.288-1.617-13.131-.898.051-8.158 2.462-16.133 5.359m-326.333 33.217c-.367.366-.667 2.997-.667 5.845 0 6.771 1.017 7.607 15.098 12.418 17.309 5.913 26.466 9.479 36.902 14.37 5.225 2.448 11.75 5.463 14.5 6.698 7.965 3.579 31.774 17.693 46.817 27.752 7.608 5.087 14.474 9.25 15.258 9.25 1.84 0 1.962-11.382.16-14.937-2.539-5.012-49.63-32.531-71.882-42.008a647 647 0 0 1-9.353-4.077c-21.623-9.716-44.838-17.306-46.833-15.311m331.833 2.37c-39.72 14.731-89.036 39.031-109.971 54.187-5.382 3.897-6.452 6.125-6.494 13.526-.045 7.945.489 7.963 11.753.404 33.21-22.287 70.655-41.1 100.212-50.348 14.836-4.642 18.312-7.686 17.803-15.59-.387-6.016-2.17-6.308-13.303-2.179m-331.833 34.63c-1.32 1.319-.708 12.054.755 13.268 1.469 1.219 3.468 2.01 24.578 9.721 31.803 11.617 49.157 20.705 84.18 44.083 8.624 5.756 16.161 10.168 16.75 9.804 1.554-.96 1.312-11.179-.341-14.343-6.191-11.851-67.904-44.35-114.527-60.311-8.847-3.029-10.304-3.314-11.395-2.222m340.333.028c-45.554 16.312-89.961 37.645-111.703 53.662-8.308 6.12-9.474 8.079-9.1 15.288.387 7.445 2.027 7.921 9.102 2.638 22.489-16.789 58.009-35.485 91.701-48.266 21.398-8.117 22.788-8.752 23.964-10.95 1.333-2.49 1.333-8.643.001-11.133-1.076-2.011-1.468-2.133-3.965-1.239"/></svg>